<?xml version="1.0" encoding="utf-8"?>
<!-- Generator: Adobe Illustrator 16.0.0, SVG Export Plug-In . SVG Version: 6.00 Build 0)  -->
<!DOCTYPE svg PUBLIC "-//W3C//DTD SVG 1.1//EN" "http://www.w3.org/Graphics/SVG/1.1/DTD/svg11.dtd">
<svg version="1.1" id="Layer_1" xmlns="http://www.w3.org/2000/svg" xmlns:xlink="http://www.w3.org/1999/xlink" x="0px" y="0px"
	 width="299.698px" height="124.368px" viewBox="0 0 299.698 124.368" enable-background="new 0 0 299.698 124.368"
	 xml:space="preserve">
<g>
	<g>
		<g>
			<g>
				<path fill-rule="evenodd" clip-rule="evenodd" fill="#636969" d="M291.907,80.28c-1.133-2.916-3.724-5.047-5.924-7.234
					c-2.024-2.124-4.619-3.793-7.433-4.719c-1.98-0.654-4.535-0.619-6.176,0.746c-1.27,1.062-1.472,2.725-1.245,4.273
					c0.185,1.254,0.696,2.438,1.343,3.539c0.36,0.617,0.785,1.087,1.298,1.596c0.587,0.653,1.27,1.236,1.877,1.873
					c0.534,0.553,1.083,1.125,1.904,1.207c0.755,0.066,1.3-0.318,1.914-0.664c0.535-0.301,1.087-0.58,1.668-0.785
					c0.624,2.147,0.76,4.488-0.107,6.568c-0.988,2.381-3.06,4.062-5.681,4.475c-1.215,0.188-2.398-0.156-3.521-0.615
					c-0.66-0.27-1.299-0.594-1.905-0.965c-0.304-0.178-0.705-0.369-0.902-0.655c-0.209-0.312-0.399-0.63-0.579-0.955
					c-1.239-2.3-1.48-4.864-1.35-7.404c0.231-4.388,1.271-8.894,2.875-12.982c0.825-2.132,1.688-4.355,1.949-6.642
					c0.119-1.074,0.068-2.208-0.465-3.186c-0.337-0.609-0.837-1.058-1.315-1.555c-1.446-1.387-2.845-3.354-4.828-3.961
					c-4.944-1.5-9.583,1.711-12.456,5.308c-0.562-0.609-1.202-1.148-1.762-1.754c-0.322-0.334-0.657-0.683-1.011-0.997
					c-0.804-0.713-1.843-1.077-2.903-1.22c-1.292-0.171-2.646-0.062-3.93,0.135c-1.049,0.155-2.109,0.452-2.968,1.075
					c-1.466,1.063-1.931,2.886-2.536,4.473c-0.229-0.337-0.644-0.638-0.939-0.929c-0.306-0.33-0.639-0.638-0.962-0.958
					c-0.074-0.079-0.154-0.152-0.231-0.232c-0.107-0.103-0.08-0.664-0.11-0.831c-0.077-0.354-0.184-0.695-0.345-1.024
					c-0.325-0.664-0.859-1.183-1.395-1.699c-0.609-0.657-1.271-1.284-1.916-1.91c-0.404-0.432-0.845-0.869-1.35-1.186
					c-1.039-0.642-2.286-0.824-3.484-0.782c-2.643,0.103-5.214,1.134-7.4,2.483c-0.114-1.284-0.826-2.2-1.75-3.047
					c-0.36-0.268-0.638-0.658-0.962-0.954c-0.319-0.32-0.631-0.65-0.966-0.958c-0.157-0.164-0.32-0.356-0.498-0.5
					c-0.793-0.751-1.903-1.093-2.962-1.262c-2.104-0.322-4.283,0.023-6.274,0.645c-2.626,0.819-5.053,2.115-7.124,3.86
					c-1.868,1.573-3.59,3.375-5.012,5.346c-0.799,1.106-1.469,2.317-2.042,3.55c-0.307,0.654-0.577,1.329-0.812,2.009
					c-0.12,0.335-0.226,0.677-0.326,1.02c-0.072,0.25-0.183,0.19-0.421,0.222c-0.128,0.018-0.331,0.099-0.431,0.007
					c-1.077-0.99-2.02-2.12-3.152-3.053c2.452-1.613,4.557-3.611,6.609-5.677c1.812-1.816,3.406-3.772,4.565-6.059
					c1.629-3.208,2.716-7.299,1.881-10.916c-0.121-0.514-0.284-1.022-0.662-1.425c-0.301-0.327-0.888-1.284-1.198-1.606
					c-0.594-0.675-3.937-2.771-5.244-3.188c-1.908-0.604-3.888-0.982-5.857-1.29c-3.738-0.59-7.597-1.05-11.361-0.623
					c-5.987,0.677-11.831,2.332-17.068,5.212c-2.222,1.222-4.491,2.629-6.154,4.543c-1.075,1.235-1.913,2.835-1.478,4.507
					c0.361,1.389,1.528,2.277,2.498,3.271c0.747,0.784,1.539,1.675,2.416,2.31c1.043,0.749,2.304,1.333,3.509,1.766
					c0.995,0.358,2.049,0.585,3.107,0.476c-2.049,4.108-3.637,8.422-5.331,12.685c-0.756-0.778-1.552-1.522-2.311-2.297
					c-0.465-0.495-0.963-1.009-1.545-1.36c-1.005-0.597-2.181-0.737-3.318-0.637c0.18-2.344-0.21-5.297-1.918-7.13
					c-0.656-0.697-1.361-1.411-2.075-2.056c-0.336-0.302-0.626-0.655-0.958-0.959c-0.3-0.258-0.548-0.536-0.893-0.743
					c-0.643-0.381-1.4-0.495-2.135-0.497c-2.318-0.001-4.701,0.832-6.781,1.741c-1.406,0.616-2.652,1.473-3.838,2.419
					c-0.45-0.627-1.091-1.205-1.659-1.73c-0.454-0.445-0.899-0.899-1.35-1.348c0.974-0.808,1.628-1.919,1.802-3.164
					c0.172-1.216-0.143-2.452-0.573-3.596c-0.479-1.28-1.213-2.395-2.169-3.389c-0.311-0.322-0.65-0.622-0.959-0.953
					c-0.628-0.653-1.297-1.262-1.924-1.916c-0.439-0.466-0.93-0.894-1.455-1.264c-0.277-0.195-0.577-0.378-0.878-0.546
					c-0.151-0.086-0.297-0.161-0.452-0.24c0.101-0.2,0.188-0.406,0.261-0.614c0.448-1.304,0.244-2.659-0.17-3.957
					c-0.453-1.421-1.205-2.703-2.221-3.824c-0.394-0.44-0.835-0.835-1.244-1.257c-0.858-0.893-1.734-1.809-2.661-2.634
					c-4.065-3.624-10.18-2.358-13.998,0.796c-3.08,2.539-5.02,6.114-6.689,9.637c-2.418,5.086-4.629,10.271-6.873,15.439
					c-1.91,4.395-3.817,8.797-5.762,13.179c-0.301-1.835-0.789-3.689-1.916-5.237c-0.633-0.872-1.415-1.595-2.165-2.37
					c-1.196-1.167-2.325-2.443-3.642-3.479c3.869-2.533,7.234-6.096,8.41-10.58c0.341-1.312,0.688-2.6,0.836-3.948
					c0.105-0.912,0.159-1.865-0.033-2.771c-0.158-0.733-0.542-1.242-1.09-1.75c-0.648-0.63-1.254-1.307-1.918-1.913
					c-0.375-0.353-0.713-0.755-1.117-1.077c-0.84-0.66-1.883-1.067-2.9-1.381c-1.808-0.555-3.737-0.838-5.609-1.07
					c-2.878-0.355-5.773-0.333-8.64,0.027c-3.19,0.398-6.386,1.131-9.423,2.144c-3.003,0.997-5.766,2.56-8.314,4.36
					c-1.207-2.28-3.339-4.106-5.191-5.914c-1.978-2.005-4.629-3.17-7.229-4.19c-1.466-0.58-2.938-1.132-4.348-1.833
					c-1.441-0.708-2.887-1.41-4.343-2.083c-1.49-0.682-2.977-1.368-4.417-2.138c-0.646-0.347-1.33-0.641-1.894-1.1
					c-2.3-1.895-2.657-2.455-3.829-4.212c-0.393-0.597-1.811-2.356-1.914-2.397c-0.033-0.009-1.253,1.389-1.54,2.37
					c-0.303,1.044-0.691,2.224-0.685,3.31c0.02,2.398,0.626,4.79,1.75,6.941c0.346,0.663,0.736,1.293,1.168,1.901
					c0.115,0.164,0.23,0.321,0.345,0.479c0.184,0.232,0.074,0.199-0.058,0.413c-0.184,0.319-0.282,0.683-0.272,1.048
					c0.018,0.922,0.509,1.977,0.837,2.838c1,2.638,2.405,5.144,4.176,7.376c-1.083,0.938-0.603,2.492-0.277,3.685
					c0.363,1.352,0.917,2.652,1.607,3.877c1.492,2.652,3.722,4.762,5.904,6.885c0.752,0.736,1.505,1.454,2.353,2.089
					c-0.709,1.459-1.34,2.966-1.869,4.51c-0.925,2.696-1.424,5.535-1.642,8.382c-0.213,2.885-0.111,5.801,0.726,8.6
					c0.82,2.755,2.342,5.359,4.342,7.482c0.671,0.714,1.386,1.387,2.079,2.076c1.174,1.188,2.347,2.402,3.755,3.33
					c3.299,2.193,7.177,2.978,11.089,2.993c2.199,0.003,4.332-0.604,6.298-1.495c0.962-0.439,1.886-0.937,2.792-1.467
					c0.193-0.118,0.396-0.24,0.596-0.357c0.346-0.209,0.304-0.17,0.588,0.111c0.239,0.234,0.467,0.473,0.703,0.7
					c-5.274,1.124-6.291,8.006-3.488,11.892c0.695,0.969,1.631,1.768,2.467,2.613c0.953,0.967,1.903,1.997,3.051,2.744
					c0.291,0.193,0.598,0.367,0.908,0.529c0.212,0.109,0.354,0.074,0.254,0.317c-0.068,0.163-0.126,0.335-0.176,0.511
					c-0.207,0.744-0.33,1.512-0.341,2.287c-0.011,1.174,0.248,2.342,0.782,3.407c0.643,1.298,1.691,2.278,2.712,3.292
					c0.634,0.639,1.272,1.283,1.922,1.912c1.936,1.936,4.708,3.033,7.431,3.236c5.367,0.404,9.808-3.079,12.944-6.91
					c2.979-3.633,5.614-7.609,7.725-11.796c1.78-3.519,3.419-7.116,5.067-10.7c0.905-1.969,1.806-3.934,2.693-5.908
					c0.357-0.801,0.713-1.596,1.064-2.397c0.133-0.308,0.273-0.624,0.401-0.925c0.106-0.259,0.118-0.268,0.428-0.307
					c0.411-0.051,0.822-0.096,1.233-0.141c0.75-0.086,1.498-0.164,2.25-0.254c0.373-0.043,0.744-0.088,1.123-0.136
					c0.334-0.038,0.654,0.587,0.88,0.841c0.405,0.465,0.864,0.891,1.303,1.334c0.623,0.65,1.282,1.27,1.917,1.912
					c1.639,1.72,3.648,2.995,5.997,3.554c2.56,0.61,5.354,0.401,7.749-0.608c1.222-0.516,2.366-1.176,3.471-1.893
					c0.645-0.424,1.271-0.867,1.892-1.314c0.294-0.215,0.591-0.43,0.886-0.641c0.076,0.076,0.156,0.152,0.23,0.23
					c0.718,0.715,1.42,1.451,2.162,2.132c4.07,3.722,10.617,3.604,15.102,0.878c0.149-0.092,0.297-0.184,0.445-0.283
					c-0.111,0.924,0.258,1.471,0.909,2.104c0.315,0.325,0.643,0.639,0.962,0.954c0.314,0.32,0.636,0.646,0.965,0.959
					c0.381,0.404,0.814,0.914,1.307,1.186c0.595,0.331,1.352,0.324,2.012,0.384c0.787,0.071,1.575,0.118,2.357,0.151
					c1.508,0.062,3.016,0.074,4.522,0.043c2.584-0.043,5.184-0.088,7.75-0.334c4.196-0.398,8.461-1.381,12.227-3.186
					c4.383-2.096,8.489-5.057,10.802-9.333c0.816,1.474,1.997,2.634,3.188,3.815c0.653,0.675,1.329,1.344,2.003,1.996
					c1.98,1.904,4.713,3.152,7.507,3.009c2.661-0.14,4.981-1.568,6.537-3.61c0.335-0.439,0.655-0.886,0.96-1.346
					c0.561,0.523,1.105,1.076,1.642,1.627c0.727,0.727,1.462,1.412,2.406,1.861c1.225,0.58,2.677,0.567,3.966,0.244
					c1.25-0.312,2.39-0.928,3.45-1.607c0.325-0.205,0.644-0.412,0.966-0.626c0.135-0.091,0.467-0.429,0.589-0.308
					c0.092,0.088,0.179,0.18,0.271,0.264c0.735,0.729,1.472,1.672,2.371,2.189c1.94,1.113,4.585,0.253,6.297-0.824
					c2.383-1.512,4.16-3.83,5.655-6.144c0.469,2.411,1.177,5.024,3.029,6.804c0.64,0.638,1.264,1.301,1.931,1.917
					c0.318,0.311,0.627,0.644,0.958,0.954c0.963,0.939,2.323,1.376,3.646,1.002c1.729-0.49,2.116-2.049,2.619-3.531
					c0.746-2.244,1.419-4.518,2.141-6.776c0.48,5.271,2.272,10.378,6.241,14.178c1.925,1.844,3.663,3.829,5.932,5.313
					c4.921,3.211,11.104,4.087,16.585,1.975c5.083-1.966,8.729-6.381,9.393-11.718C293.354,85.617,292.904,82.841,291.907,80.28
					C291.29,78.698,293.9,85.388,291.907,80.28z M182.943,44.707c-1.33,1.321-2.745,2.556-4.225,3.718
					c0.169-0.771,0.323-1.667,0.073-2.443c-0.203-0.588-0.601-1.068-1.057-1.498c-0.343-0.357-0.704-0.719-1.069-1.069
					c-0.912-0.903-1.793-1.949-2.88-2.653c4.052-1.233,8.532-1.975,12.797-1.361C185.793,41.402,184.468,43.183,182.943,44.707
					C181.687,45.959,184.936,42.712,182.943,44.707z M206.994,69.741c-0.549,1.2-1.1,2.398-1.731,3.559
					c-0.465,0.851-0.953,1.753-1.646,2.451c-0.378-1.592-0.624-3.285-0.373-4.902C203.5,70.772,205.774,70.205,206.994,69.741z
					 M117.149,47.497c0.218,0.21,0.424,0.434,0.643,0.632c-1.264,0.527-3.668,2.484-4.771,3.274
					c0.578-1.253,2.394-3.775,3.029-5.007C116.409,46.77,116.776,47.139,117.149,47.497z M73.073,104.693
					c-0.596-0.639-1.253-1.222-1.859-1.853c2.408-1.141,4.555-2.766,6.383-4.658c-1.223,2.316-2.412,4.857-4.242,6.783
					C73.256,104.88,73.163,104.786,73.073,104.693C73.063,104.676,73.085,104.704,73.073,104.693z M65.071,53.369
					c-0.219,0.63-0.429,1.264-0.609,1.907c-0.998-0.967-2.324-1.582-3.728-1.649c-1.511-0.077-2.856,0.503-4.035,1.372
					c-2.319,1.719-3.891,4.045-5.022,6.631c-1.111,2.524-1.912,5.148-2.207,7.892c-0.145,1.336-0.287,2.766-0.152,4.111
					c0.023,0.303,0.055,0.598,0.084,0.901c0.012,0.146,0.025,0.298,0.042,0.447c0.013,0.161-0.261,0.292-0.38,0.382
					c-1.991,1.566-4.852,2.7-7.445,1.948c-0.383-0.112-0.655-0.17-0.824-0.542c-0.137-0.297-0.256-0.608-0.356-0.918
					c-0.206-0.641-0.344-1.297-0.427-1.955c-0.17-1.305-0.192-2.626-0.143-3.941c0.21-6.061,2.428-11.978,5.43-17.194
					c1.629-2.845,3.539-5.531,5.737-7.976c0.718,1.974,2.448,3.332,3.894,4.8c0.983,1.013,2.01,1.94,3.316,2.543
					c2.214,1.023,4.688,1.127,7.056,0.75C65.215,53.041,65.133,53.194,65.071,53.369C64.839,54.023,65.12,53.247,65.071,53.369z
					 M61.844,76.389c0.037-1.841,0.213-3.685,0.726-5.46c0.245-0.85,0.553-1.674,0.907-2.481c0.416-0.954,0.836-1.927,1.515-2.728
					c0.698,1.451,1.656,2.777,2.757,3.975c0.156,0.17,0.346,0.328,0.494,0.502c0.159,0.166,0.343,0.229,0.252,0.444
					c-0.125,0.294-0.26,0.583-0.41,0.864c-0.576,1.066-1.383,1.959-2.309,2.754c-1.135,0.973-2.439,2.202-3.924,2.603
					C61.842,76.709,61.834,76.546,61.844,76.389C61.921,72.563,61.835,76.551,61.844,76.389z M63.784,88.519
					c-0.053-0.049-0.119-0.101-0.16-0.157c2.169,0.006,4.242-0.68,6.117-1.674c-0.943,1.683-2.137,3.247-3.494,4.626
					c-0.253-0.488-0.51-0.881-0.912-1.248c-0.178-0.166-0.339-0.339-0.51-0.506C64.471,89.216,64.143,88.849,63.784,88.519z"/>
				<g>
					<path fill="#636969" d="M287.855,69.465c-2.735-2.155-5.158-3.11-8.415-4.183c-1.807-0.594-3.847-0.715-5.553-0.356
						c0.406-1.274,0.744-2.612,0.907-4.01c0.214-1.887-0.052-3.468-0.795-4.834c-0.462-0.846-1.055-1.442-1.521-1.922l-0.327-0.332
						c-0.314-0.304-0.625-0.638-0.943-0.973c-1.254-1.335-2.812-3-5.081-3.686c-4.443-1.348-9.354,0.116-13.39,3.873
						c-0.231-0.233-0.478-0.476-0.731-0.697c-1.16-1.035-2.716-1.706-4.482-1.939c-1.382-0.187-2.911-0.142-4.768,0.136
						c-1.729,0.262-3.118,0.784-4.236,1.593c-0.417,0.305-0.783,0.64-1.097,0.983c-0.496-0.79-1.103-1.382-1.587-1.847
						c-0.639-0.675-1.289-1.303-1.92-1.907c-0.502-0.536-1.119-1.141-1.899-1.621c-1.433-0.886-3.224-1.301-5.179-1.232
						c-1.908,0.075-3.909,0.549-5.895,1.4c-0.375-0.475-0.771-0.863-1.125-1.184l-0.182-0.152c-0.073-0.071-0.136-0.148-0.207-0.222
						c-0.166-0.179-0.333-0.359-0.505-0.523l-0.26-0.263c-0.25-0.251-0.497-0.507-0.747-0.744c-0.137-0.146-0.325-0.356-0.595-0.571
						c-1.092-0.998-2.59-1.653-4.44-1.937c-2.312-0.366-4.892-0.116-7.617,0.737c-1.034,0.321-2.034,0.704-2.993,1.146
						c0.758-2.516,1.2-5.606,0.481-8.726c-0.185-0.798-0.507-1.819-1.306-2.673c-0.097-0.128-0.229-0.314-0.354-0.5
						c-0.312-0.447-0.604-0.862-0.931-1.2c-1.11-1.155-4.823-3.43-6.48-3.951c-2.243-0.707-4.541-1.115-6.296-1.394
						c-2.379-0.373-5.2-0.762-8.064-0.817c-1.452-0.03-2.793,0.032-4.092,0.177c-6.728,0.762-12.831,2.627-18.146,5.551
						c-2.31,1.269-4.939,2.872-6.927,5.161c-1.953,2.249-2.667,4.667-2.062,7c0.49,1.892,1.771,3.132,2.701,4.031
						c0.172,0.171,0.344,0.336,0.506,0.507l0.355,0.374c0.705,0.744,1.507,1.587,2.467,2.281c1.135,0.817,2.519,1.526,4.122,2.107
						c-0.805,1.818-1.542,3.643-2.251,5.453c-0.373-0.333-0.786-0.665-1.264-0.949c-0.597-0.357-1.253-0.627-1.945-0.811
						c-0.198-2.022-0.854-4.514-2.646-6.435c-0.776-0.833-1.53-1.585-2.254-2.236c-0.118-0.106-0.22-0.22-0.324-0.326
						c-0.203-0.22-0.412-0.431-0.654-0.645l-0.17-0.153c-0.271-0.256-0.642-0.607-1.177-0.925c-0.982-0.581-2.151-0.886-3.479-0.913
						l-0.175,0.001c-3.075-0.002-6.019,1.131-7.968,1.987c-0.436,0.192-0.861,0.406-1.3,0.646c0.174-0.481,0.295-0.976,0.361-1.479
						c0.276-1.966-0.28-3.761-0.725-4.947c-0.603-1.604-1.544-3.068-2.795-4.366c-0.173-0.175-0.348-0.347-0.521-0.52
						c-0.146-0.138-0.285-0.279-0.442-0.437c-0.322-0.333-0.656-0.659-0.987-0.98c-0.309-0.305-0.619-0.615-0.905-0.906
						c-0.479-0.509-1.001-0.977-1.552-1.393c0.148-1.263-0.018-2.633-0.5-4.14c-0.578-1.796-1.525-3.435-2.822-4.867
						c-0.277-0.314-0.578-0.61-0.878-0.899c-0.146-0.145-0.289-0.286-0.479-0.478c-0.875-0.909-1.783-1.854-2.778-2.739
						c-2.103-1.876-4.772-2.901-7.712-2.953c-3.541-0.065-7.229,1.26-10.119,3.649c-3.473,2.865-5.624,6.78-7.424,10.579
						c-2.064,4.344-3.998,8.807-5.872,13.125l-2.052,4.727c-0.672,1.555-1.346,3.104-2.025,4.65
						c-0.516-0.64-1.064-1.194-1.566-1.693l-0.537-0.547c-0.332-0.326-0.66-0.661-0.988-0.992c-0.078-0.085-0.156-0.162-0.239-0.242
						c2.815-2.374,5.621-5.732,6.797-10.204c0.353-1.342,0.714-2.73,0.886-4.242c0.115-0.994,0.207-2.306-0.08-3.66
						c-0.348-1.61-1.279-2.626-1.898-3.199c-0.232-0.228-0.461-0.459-0.691-0.698c-0.422-0.435-0.852-0.872-1.238-1.219
						c-0.103-0.103-0.203-0.206-0.305-0.309c-0.271-0.277-0.606-0.624-1.021-0.953c-1.274-1.014-2.733-1.545-3.866-1.89
						c-2.098-0.656-4.267-0.955-6.13-1.19c-3.04-0.371-6.203-0.361-9.374,0.032c-3.354,0.417-6.718,1.181-9.987,2.267
						c-2.19,0.734-4.363,1.755-6.588,3.111c-0.971-1.164-2.055-2.201-3.062-3.154c-0.283-0.275-0.57-0.549-0.801-0.774
						c-2.409-2.438-5.525-3.793-8.249-4.867l-0.653-0.256c-1.229-0.481-2.385-0.936-3.486-1.477
						c-1.457-0.723-2.919-1.433-4.403-2.112l-0.115-0.056c-1.45-0.669-2.822-1.294-4.145-2.009l-0.501-0.257
						c-0.369-0.186-0.72-0.366-0.906-0.519c-1.926-1.58-2.142-1.906-3.187-3.474l-0.064-0.105c-1.371-2.045-2.524-3.238-3.433-3.544
						l-0.438-0.149l-0.465-0.009C8.862,4.006,7.358,8.39,7.345,8.436L7.25,8.773c-0.317,1.057-0.705,2.384-0.694,3.756
						c0.017,2.829,0.733,5.668,2.065,8.216c0.285,0.545,0.602,1.083,0.947,1.613c-0.06,0.32-0.09,0.654-0.083,0.991
						c0.02,1.26,0.482,2.407,0.849,3.333l0.17,0.43c0.891,2.363,2.066,4.588,3.492,6.636c-0.4,1.544,0.034,3.112,0.279,4.026
						l0.042,0.147c0.415,1.534,1.048,3.057,1.868,4.519c1.622,2.877,3.892,5.086,6.079,7.223l0.329,0.311
						c0.277,0.28,0.568,0.554,0.873,0.84c-0.412,0.958-0.784,1.914-1.101,2.851c-0.938,2.751-1.538,5.796-1.781,9.068
						c-0.275,3.663-0.001,6.802,0.837,9.594c0.938,3.166,2.665,6.148,4.994,8.621c0.5,0.529,1.022,1.039,1.537,1.551l0.687,0.674
						c1.236,1.256,2.505,2.547,4.127,3.62c3.348,2.224,7.464,3.396,12.25,3.482L45.5,90.28c1.041,0.008,2.104-0.104,3.184-0.321
						c-0.499,2.947,0.177,6.093,1.904,8.481c0.66,0.922,1.435,1.669,2.119,2.331c0.217,0.21,0.43,0.415,0.633,0.622l0.332,0.338
						c0.774,0.79,1.639,1.68,2.682,2.441c-0.084,0.541-0.133,1.066-0.137,1.594c-0.02,1.619,0.354,3.238,1.072,4.688
						c0.799,1.613,1.973,2.772,3.008,3.797l0.287,0.29c0.637,0.644,1.275,1.29,1.879,1.868c2.334,2.332,5.729,3.832,9.32,4.102
						c0.266,0.021,0.533,0.034,0.801,0.041c5.193,0.098,10.239-2.666,14.598-7.98c3.188-3.887,5.89-8.029,8.051-12.299
						c1.609-3.185,3.119-6.462,4.578-9.627l0.533-1.166c0.91-1.975,1.814-3.949,2.702-5.934c0.325-0.713,0.641-1.428,0.956-2.146
						l1.863-0.208c0.244,0.262,0.498,0.514,0.753,0.764l0.362,0.364c0.352,0.364,0.717,0.72,1.078,1.075
						c0.291,0.283,0.573,0.562,0.824,0.814c2.109,2.217,4.692,3.74,7.463,4.399c3.158,0.746,6.664,0.469,9.584-0.76
						c1.23-0.517,2.474-1.198,3.912-2.136c0.288-0.187,0.576-0.38,0.857-0.574c0.23,0.229,0.469,0.454,0.712,0.678
						c2.49,2.276,5.887,3.565,9.569,3.638c2.267,0.038,4.549-0.378,6.625-1.2c0.053,0.048,0.096,0.092,0.129,0.127
						c0.338,0.35,0.688,0.684,1.061,1.053c0.294,0.299,0.588,0.597,0.887,0.885l0.108,0.115c0.445,0.474,1.042,1.117,1.87,1.578
						c1.074,0.598,2.183,0.68,2.922,0.729l0.279,0.021c0.829,0.072,1.661,0.121,2.494,0.16c1.569,0.063,3.141,0.076,4.701,0.048
						c2.462-0.044,5.26-0.095,7.985-0.35c4.948-0.474,9.397-1.634,13.205-3.454c4.074-1.949,7.308-4.312,9.662-7.066
						c0.293,0.297,0.577,0.59,0.86,0.865l0.058,0.062c0.684,0.701,1.379,1.389,2.083,2.065c2.692,2.593,6.247,4.023,9.725,3.835
						c2.847-0.144,5.539-1.398,7.603-3.492c0.692,0.632,1.501,1.266,2.504,1.74c1.73,0.82,3.839,0.978,5.968,0.447
						c1.503-0.377,2.795-1.045,3.803-1.662c0.463,0.453,1.002,0.896,1.636,1.264c1.018,0.583,2.173,0.896,3.433,0.92
						c2.696,0.051,5.036-1.239,5.915-1.791c1.124-0.715,2.118-1.567,3.002-2.471c0.517,0.982,1.177,1.899,2.021,2.712l0.612,0.609
						c0.437,0.452,0.886,0.903,1.348,1.33l0.263,0.27c0.243,0.251,0.492,0.499,0.683,0.671c1.744,1.718,4.253,2.391,6.537,1.747
						c1.931-0.548,2.985-1.798,3.625-3.031c1.151,2.346,7.852,7.836,9.82,9.124c3.502,2.283,13.404,5.3,19.354,3.133
						c6.608-2.406,9.169-9.588,9.946-15.843C293.828,83.662,294.242,74.499,287.855,69.465z"/>
				</g>
			</g>
			<path fill-rule="evenodd" clip-rule="evenodd" fill="#636969" d="M291.907,80.28c-1.133-2.916-3.724-5.047-5.924-7.234
				c-2.024-2.124-4.619-3.793-7.433-4.719c-1.98-0.654-4.535-0.619-6.176,0.746c-1.27,1.062-1.472,2.725-1.245,4.273
				c0.185,1.254,0.696,2.438,1.343,3.539c0.36,0.617,0.785,1.087,1.298,1.596c0.587,0.653,1.27,1.236,1.877,1.873
				c0.534,0.553,1.083,1.125,1.904,1.207c0.755,0.066,1.3-0.318,1.914-0.664c0.535-0.301,1.087-0.58,1.668-0.785
				c0.624,2.147,0.76,4.488-0.107,6.568c-0.988,2.381-3.06,4.062-5.681,4.475c-1.215,0.188-2.398-0.156-3.521-0.615
				c-0.66-0.27-1.299-0.594-1.905-0.965c-0.304-0.178-0.705-0.369-0.902-0.655c-0.209-0.312-0.399-0.63-0.579-0.955
				c-1.239-2.3-1.48-4.864-1.35-7.404c0.231-4.388,1.271-8.894,2.875-12.982c0.825-2.132,1.688-4.355,1.949-6.642
				c0.119-1.074,0.068-2.208-0.465-3.186c-0.337-0.609-0.837-1.058-1.315-1.555c-1.446-1.387-2.845-3.354-4.828-3.961
				c-4.944-1.5-9.583,1.711-12.456,5.308c-0.562-0.609-1.202-1.148-1.762-1.754c-0.322-0.334-0.657-0.683-1.011-0.997
				c-0.804-0.713-1.843-1.077-2.903-1.22c-1.292-0.171-2.646-0.062-3.93,0.135c-1.049,0.155-2.109,0.452-2.968,1.075
				c-1.466,1.063-1.931,2.886-2.536,4.473c-0.229-0.337-0.644-0.638-0.939-0.929c-0.306-0.33-0.639-0.638-0.962-0.958
				c-0.074-0.079-0.154-0.152-0.231-0.232c-0.107-0.103-0.08-0.664-0.11-0.831c-0.077-0.354-0.184-0.695-0.345-1.024
				c-0.325-0.664-0.859-1.183-1.395-1.699c-0.609-0.657-1.271-1.284-1.916-1.91c-0.404-0.432-0.845-0.869-1.35-1.186
				c-1.039-0.642-2.286-0.824-3.484-0.782c-2.643,0.103-5.214,1.134-7.4,2.483c-0.114-1.284-0.826-2.2-1.75-3.047
				c-0.36-0.268-0.638-0.658-0.962-0.954c-0.319-0.32-0.631-0.65-0.966-0.958c-0.157-0.164-0.32-0.356-0.498-0.5
				c-0.793-0.751-1.903-1.093-2.962-1.262c-2.104-0.322-4.283,0.023-6.274,0.645c-2.626,0.819-5.053,2.115-7.124,3.86
				c-1.868,1.573-3.59,3.375-5.012,5.346c-0.799,1.106-1.469,2.317-2.042,3.55c-0.307,0.654-0.577,1.329-0.812,2.009
				c-0.12,0.335-0.226,0.677-0.326,1.02c-0.072,0.25-0.183,0.19-0.421,0.222c-0.128,0.018-0.331,0.099-0.431,0.007
				c-1.077-0.99-2.02-2.12-3.152-3.053c2.452-1.613,4.557-3.611,6.609-5.677c1.812-1.816,3.406-3.772,4.565-6.059
				c1.629-3.208,2.716-7.299,1.881-10.916c-0.121-0.514-0.284-1.022-0.662-1.425c-0.301-0.327-0.888-1.284-1.198-1.606
				c-0.594-0.675-3.937-2.771-5.244-3.188c-1.908-0.604-3.888-0.982-5.857-1.29c-3.738-0.59-7.597-1.05-11.361-0.623
				c-5.987,0.677-11.831,2.332-17.068,5.212c-2.222,1.222-4.491,2.629-6.154,4.543c-1.075,1.235-1.913,2.835-1.478,4.507
				c0.361,1.389,1.528,2.277,2.498,3.271c0.747,0.784,1.539,1.675,2.416,2.31c1.043,0.749,2.304,1.333,3.509,1.766
				c0.995,0.358,2.049,0.585,3.107,0.476c-2.049,4.108-3.637,8.422-5.331,12.685c-0.756-0.778-1.552-1.522-2.311-2.297
				c-0.465-0.495-0.963-1.009-1.545-1.36c-1.005-0.597-2.181-0.737-3.318-0.637c0.18-2.344-0.21-5.297-1.918-7.13
				c-0.656-0.697-1.361-1.411-2.075-2.056c-0.336-0.302-0.626-0.655-0.958-0.959c-0.3-0.258-0.548-0.536-0.893-0.743
				c-0.643-0.381-1.4-0.495-2.135-0.497c-2.318-0.001-4.701,0.832-6.781,1.741c-1.406,0.616-2.652,1.473-3.838,2.419
				c-0.45-0.627-1.091-1.205-1.659-1.73c-0.454-0.445-0.899-0.899-1.35-1.348c0.974-0.808,1.628-1.919,1.802-3.164
				c0.172-1.216-0.143-2.452-0.573-3.596c-0.479-1.28-1.213-2.395-2.169-3.389c-0.311-0.322-0.65-0.622-0.959-0.953
				c-0.628-0.653-1.297-1.262-1.924-1.916c-0.439-0.466-0.93-0.894-1.455-1.264c-0.277-0.195-0.577-0.378-0.878-0.546
				c-0.151-0.086-0.297-0.161-0.452-0.24c0.101-0.2,0.188-0.406,0.261-0.614c0.448-1.304,0.244-2.659-0.17-3.957
				c-0.453-1.421-1.205-2.703-2.221-3.824c-0.394-0.44-0.835-0.835-1.244-1.257c-0.858-0.893-1.734-1.809-2.661-2.634
				c-4.065-3.624-10.18-2.358-13.998,0.796c-3.08,2.539-5.02,6.114-6.689,9.637c-2.418,5.086-4.629,10.271-6.873,15.439
				c-1.91,4.395-3.817,8.797-5.762,13.179c-0.301-1.835-0.789-3.689-1.916-5.237c-0.633-0.872-1.415-1.595-2.165-2.37
				c-1.196-1.167-2.325-2.443-3.642-3.479c3.869-2.533,7.234-6.096,8.41-10.58c0.341-1.312,0.688-2.6,0.836-3.948
				c0.105-0.912,0.159-1.865-0.033-2.771c-0.158-0.733-0.542-1.242-1.09-1.75c-0.648-0.63-1.254-1.307-1.918-1.913
				c-0.375-0.353-0.713-0.755-1.117-1.077c-0.84-0.66-1.883-1.067-2.9-1.381c-1.808-0.555-3.737-0.838-5.609-1.07
				c-2.878-0.355-5.773-0.333-8.64,0.027c-3.19,0.398-6.386,1.131-9.423,2.144c-3.003,0.997-5.766,2.56-8.314,4.36
				c-1.207-2.28-3.339-4.106-5.191-5.914c-1.978-2.005-4.629-3.17-7.229-4.19c-1.466-0.58-2.938-1.132-4.348-1.833
				c-1.441-0.708-2.887-1.41-4.343-2.083c-1.49-0.682-2.977-1.368-4.417-2.138c-0.646-0.347-1.33-0.641-1.894-1.1
				c-2.3-1.895-2.657-2.455-3.829-4.212c-0.393-0.597-1.811-2.356-1.914-2.397c-0.033-0.009-1.253,1.389-1.54,2.37
				c-0.303,1.044-0.691,2.224-0.685,3.31c0.02,2.398,0.626,4.79,1.75,6.941c0.346,0.663,0.736,1.293,1.168,1.901
				c0.115,0.164,0.23,0.321,0.345,0.479c0.184,0.232,0.074,0.199-0.058,0.413c-0.184,0.319-0.282,0.683-0.272,1.048
				c0.018,0.922,0.509,1.977,0.837,2.838c1,2.638,2.405,5.144,4.176,7.376c-1.083,0.938-0.603,2.492-0.277,3.685
				c0.363,1.352,0.917,2.652,1.607,3.877c1.492,2.652,3.722,4.762,5.904,6.885c0.752,0.736,1.505,1.454,2.353,2.089
				c-0.709,1.459-1.34,2.966-1.869,4.51c-0.925,2.696-1.424,5.535-1.642,8.382c-0.213,2.885-0.111,5.801,0.726,8.6
				c0.82,2.755,2.342,5.359,4.342,7.482c0.671,0.714,1.386,1.387,2.079,2.076c1.174,1.188,2.347,2.402,3.755,3.33
				c3.299,2.193,7.177,2.978,11.089,2.993c2.199,0.003,4.332-0.604,6.298-1.495c0.962-0.439,1.886-0.937,2.792-1.467
				c0.193-0.118,0.396-0.24,0.596-0.357c0.346-0.209,0.304-0.17,0.588,0.111c0.239,0.234,0.467,0.473,0.703,0.7
				c-5.274,1.124-6.291,8.006-3.488,11.892c0.695,0.969,1.631,1.768,2.467,2.613c0.953,0.967,1.903,1.997,3.051,2.744
				c0.291,0.193,0.598,0.367,0.908,0.529c0.212,0.109,0.354,0.074,0.254,0.317c-0.068,0.163-0.126,0.335-0.176,0.511
				c-0.207,0.744-0.33,1.512-0.341,2.287c-0.011,1.174,0.248,2.342,0.782,3.407c0.643,1.298,1.691,2.278,2.712,3.292
				c0.634,0.639,1.272,1.283,1.922,1.912c1.936,1.936,4.708,3.033,7.431,3.236c5.367,0.404,9.808-3.079,12.944-6.91
				c2.979-3.633,5.614-7.609,7.725-11.796c1.78-3.519,3.419-7.116,5.067-10.7c0.905-1.969,1.806-3.934,2.693-5.908
				c0.357-0.801,0.713-1.596,1.064-2.397c0.133-0.308,0.273-0.624,0.401-0.925c0.106-0.259,0.118-0.268,0.428-0.307
				c0.411-0.051,0.822-0.096,1.233-0.141c0.75-0.086,1.498-0.164,2.25-0.254c0.373-0.043,0.744-0.088,1.123-0.136
				c0.334-0.038,0.654,0.587,0.88,0.841c0.405,0.465,0.864,0.891,1.303,1.334c0.623,0.65,1.282,1.27,1.917,1.912
				c1.639,1.72,3.648,2.995,5.997,3.554c2.56,0.61,5.354,0.401,7.749-0.608c1.222-0.516,2.366-1.176,3.471-1.893
				c0.645-0.424,1.271-0.867,1.892-1.314c0.294-0.215,0.591-0.43,0.886-0.641c0.076,0.076,0.156,0.152,0.23,0.23
				c0.718,0.715,1.42,1.451,2.162,2.132c4.07,3.722,10.617,3.604,15.102,0.878c0.149-0.092,0.297-0.184,0.445-0.283
				c-0.111,0.924,0.258,1.471,0.909,2.104c0.315,0.325,0.643,0.639,0.962,0.954c0.314,0.32,0.636,0.646,0.965,0.959
				c0.381,0.404,0.814,0.914,1.307,1.186c0.595,0.331,1.352,0.324,2.012,0.384c0.787,0.071,1.575,0.118,2.357,0.151
				c1.508,0.062,3.016,0.074,4.522,0.043c2.584-0.043,5.184-0.088,7.75-0.334c4.196-0.398,8.461-1.381,12.227-3.186
				c4.383-2.096,8.489-5.057,10.802-9.333c0.816,1.474,1.997,2.634,3.188,3.815c0.653,0.675,1.329,1.344,2.003,1.996
				c1.98,1.904,4.713,3.152,7.507,3.009c2.661-0.14,4.981-1.568,6.537-3.61c0.335-0.439,0.655-0.886,0.96-1.346
				c0.561,0.523,1.105,1.076,1.642,1.627c0.727,0.727,1.462,1.412,2.406,1.861c1.225,0.58,2.677,0.567,3.966,0.244
				c1.25-0.312,2.39-0.928,3.45-1.607c0.325-0.205,0.644-0.412,0.966-0.626c0.135-0.091,0.467-0.429,0.589-0.308
				c0.092,0.088,0.179,0.18,0.271,0.264c0.735,0.729,1.472,1.672,2.371,2.189c1.94,1.113,4.585,0.253,6.297-0.824
				c2.383-1.512,4.16-3.83,5.655-6.144c0.469,2.411,1.177,5.024,3.029,6.804c0.64,0.638,1.264,1.301,1.931,1.917
				c0.318,0.311,0.627,0.644,0.958,0.954c0.963,0.939,2.323,1.376,3.646,1.002c1.729-0.49,2.116-2.049,2.619-3.531
				c0.746-2.244,1.419-4.518,2.141-6.776c0.48,5.271,2.272,10.378,6.241,14.178c1.925,1.844,3.663,3.829,5.932,5.313
				c4.921,3.211,11.104,4.087,16.585,1.975c5.083-1.966,8.729-6.381,9.393-11.718C293.354,85.617,292.904,82.841,291.907,80.28
				C291.29,78.698,293.9,85.388,291.907,80.28z M182.943,44.707c-1.33,1.321-2.745,2.556-4.225,3.718
				c0.169-0.771,0.323-1.667,0.073-2.443c-0.203-0.588-0.601-1.068-1.057-1.498c-0.343-0.357-0.704-0.719-1.069-1.069
				c-0.912-0.903-1.793-1.949-2.88-2.653c4.052-1.233,8.532-1.975,12.797-1.361C185.793,41.402,184.468,43.183,182.943,44.707
				C181.687,45.959,184.936,42.712,182.943,44.707z M206.994,69.741c-0.549,1.2-1.1,2.398-1.731,3.559
				c-0.465,0.851-0.953,1.753-1.646,2.451c-0.378-1.592-0.624-3.285-0.373-4.902C203.5,70.772,205.774,70.205,206.994,69.741z
				 M117.149,47.497c0.218,0.21,0.424,0.434,0.643,0.632c-1.264,0.527-3.668,2.484-4.771,3.274c0.578-1.253,2.394-3.775,3.029-5.007
				C116.409,46.77,116.776,47.139,117.149,47.497z M73.073,104.693c-0.596-0.639-1.253-1.222-1.859-1.853
				c2.408-1.141,4.555-2.766,6.383-4.658c-1.223,2.316-2.412,4.857-4.242,6.783C73.256,104.88,73.163,104.786,73.073,104.693
				C73.063,104.676,73.085,104.704,73.073,104.693z M65.071,53.369c-0.219,0.63-0.429,1.264-0.609,1.907
				c-0.998-0.967-2.324-1.582-3.728-1.649c-1.511-0.077-2.856,0.503-4.035,1.372c-2.319,1.719-3.891,4.045-5.022,6.631
				c-1.111,2.524-1.912,5.148-2.207,7.892c-0.145,1.336-0.287,2.766-0.152,4.111c0.023,0.303,0.055,0.598,0.084,0.901
				c0.012,0.146,0.025,0.298,0.042,0.447c0.013,0.161-0.261,0.292-0.38,0.382c-1.991,1.566-4.852,2.7-7.445,1.948
				c-0.383-0.112-0.655-0.17-0.824-0.542c-0.137-0.297-0.256-0.608-0.356-0.918c-0.206-0.641-0.344-1.297-0.427-1.955
				c-0.17-1.305-0.192-2.626-0.143-3.941c0.21-6.061,2.428-11.978,5.43-17.194c1.629-2.845,3.539-5.531,5.737-7.976
				c0.718,1.974,2.448,3.332,3.894,4.8c0.983,1.013,2.01,1.94,3.316,2.543c2.214,1.023,4.688,1.127,7.056,0.75
				C65.215,53.041,65.133,53.194,65.071,53.369C64.839,54.023,65.12,53.247,65.071,53.369z M61.844,76.389
				c0.037-1.841,0.213-3.685,0.726-5.46c0.245-0.85,0.553-1.674,0.907-2.481c0.416-0.954,0.836-1.927,1.515-2.728
				c0.698,1.451,1.656,2.777,2.757,3.975c0.156,0.17,0.346,0.328,0.494,0.502c0.159,0.166,0.343,0.229,0.252,0.444
				c-0.125,0.294-0.26,0.583-0.41,0.864c-0.576,1.066-1.383,1.959-2.309,2.754c-1.135,0.973-2.439,2.202-3.924,2.603
				C61.842,76.709,61.834,76.546,61.844,76.389C61.921,72.563,61.835,76.551,61.844,76.389z M63.784,88.519
				c-0.053-0.049-0.119-0.101-0.16-0.157c2.169,0.006,4.242-0.68,6.117-1.674c-0.943,1.683-2.137,3.247-3.494,4.626
				c-0.253-0.488-0.51-0.881-0.912-1.248c-0.178-0.166-0.339-0.339-0.51-0.506C64.471,89.216,64.143,88.849,63.784,88.519z"/>
			<path fill-rule="evenodd" clip-rule="evenodd" fill="#FFFFFF" d="M289.451,79.95c-0.904-2.307-1.172-1.918-4.398-3.45
				c-1.887-0.921-0.68-0.233-1.445-0.214c-1.364,0.038-2.553-1.037-5.019,0.562c-1.489,0.966-2.14-1.766-2.626,0.39
				c1.646-2.413,3.186-1.08,5.205-0.292c0.493,0.401,0.803,1.967,0.884,2.339c0.759,3.491,0.737,7.028-2.499,9.533
				c-5.389,4.19-14.415-1.647-14.642-9.37c-0.159-5.532,1.426-10.854,2.747-14.047c0.594-1.42,1.38-3.927,1.609-5.306
				c0.369-2.217-0.272-2.742-1.08-3.442c-0.553-0.484-2.896-1.101-5.019-0.359c-10.496,3.647-12.936,22.447-13.73,22.89
				c-0.349-0.81,0.122-4.394,0.191-5.061c0.237-2.201,2.758-9.91,2.733-11.736c-0.037-3.973-0.867-5.274-5.892-4.652
				c-3.258,0.403-3.076,1.591-4.433,4.964c-1.358,3.375-5.253,13.212-9.967,17.105c-0.871-2.362,2.828-10.643,3.695-13.54
				c0.59-1.975,1.619-4.975,0.464-6.148c-1.496-0.915-5.502-3.241-3.986,2.449c-1.254,4.886-1.726,5.321-4.921,9.549
				c-3.235,4.278-7.257,6.93-8.358,6.75c-1.129-0.572-1.814-4.544-0.442-9.942c0.931-3.638,1.774-5.169,4.491-7.923
				c2.038-2.063,5.94-3.85,9.837-3.523c1.24-5.319-5.494-3.91-9.115-1.761c-3.934,2.333-7.011,5.454-8.527,9.193
				c-0.07,0.187-0.152,0.388-0.221,0.61c-0.015,0.012-0.014,0.018-0.026,0.025c-1.752,2.272-4.5,10.807-7.188,13.641
				c-2.119,2.242-5.219,1.888-6.646-3.816c-0.785-3.112-0.678-5.465-0.204-6.99c0.094-0.303,1.896-0.639,3.93-1.256
				c2.771-0.833,5.289-2.678,6.873-4.241c3.685-3.635,4.298-6.588,4.298-6.588c1.396-4.471,1.12-5.556,0.527-6.095
				c-0.901-0.812-5.02-1.72-11.067,1.641c-2.727,1.513-6.15,5.179-7.488,7.254c-1.422,2.206-2.385,4.498-2.878,6.85
				c-1.252,0.157-2.195,0.37-3.914,0.433c-2.07-3.766-5.795-6.293-11.331-7.175c6.2-2.726,8.7-5.34,12.143-8.796
				c6.381-6.411,5.838-14.109,5.215-15.088c-0.881-1.372-12.449-3.577-18.032-3.027c-6.478,0.643-11.779,2.331-15.849,4.42
				c-2.938,1.51-11.271,6.286-6.396,9.06c8.709,4.939,5.71-3.02,8.786-4.985c5.84-3.72,19.546-6.854,25.873-2.556
				c0.599,0.411,0.252,5.157-4.586,9.971c-4.08,4.077-11.852,9.939-16.585,9.848c1.631-3.481,5.859-8.683,5.875-12.353
				c0.007-1.452-6.903-3.851-6.547-2.299c0.683,2.955-1.72,7.724-3.576,11.36c-1.265,2.479-6.542,16.494-10.109,24.833
				c-1.271,3.211-2.679,7.559-2.538,7.575c2.432,0.316,5.832,0.706,8.248,0.647c7.218-0.162,9.185-0.281,14.307-1.562
				c4.368-1.093,8.86-4.384,10.982-6.396c3.185-3.022,4.819-6.312,4.879-10.487c0.004-0.184,1.036-0.389,2.801-0.686
				c-0.155,3.211,0.559,6.508,2.228,9.82c2.419,4.818,8.931,7.181,12.784,2.131c1.746-2.287,2.91-4.595,3.676-6.531
				c-0.035,1.138,0.031,2.184,0.245,2.998c0.88,3.398,3.135,5.076,4.188,5.269c2.242,0.405,4.267-1.053,5.776-2.044
				c1.228-0.803,2.168-1.834,3.731-3.1c0.25,2.268,0.206,2.151,0.45,3.131c0.535,1.492,0.992,2.441,2.559,2.246
				c4.74-0.219,8.935-7.75,11.381-12.977c2.816-5.481,3.953-9.559,4.628-8.944c0.728,0.657,0.053,3.927-0.014,4.198
				c-1.261,5.256-2.229,8.129-1.473,13.513c0.533,3.812,2.006,8.717,4.469,7.355c0.984-1.307,4.496-15.708,7.665-20.601
				c3.639-5.604,5.264-4.857,6.18-4.605c0.502,0.408,0.416,1.761-0.178,3.294c-2.717,6.977-4.423,11.248-3.302,18.592
				c0.859,5.629,3.491,10.885,9.923,14.096c6.718,3.354,15.018,1.369,18.687-4.034C291.016,88.587,291.077,84.111,289.451,79.95z
				 M205.369,55.986c3.558-3.386,7.522-2.895,7.692-2.668c0.325,0.46,0.143,2.926-2.73,5.938c-3.005,3.144-3.715,4.225-9.624,6.254
				C201.448,60.717,202.779,58.448,205.369,55.986z M166.198,68.159c4.048-5.561,10.807-9.222,16.158-4.831
				c1.114,0.915,2.436,3.11,2.556,3.636c0.071,0.321-3.313,0.045-9.737,1.93c-7.14,2.104-12.569,7.634-14.199,9.038
				C162.088,75.532,163.448,71.946,166.198,68.159z M175.889,81.497c-4.556,2.256-8.119,2.134-12.153,2.321
				c-1.583,0.072-4.021-0.354-4.071-0.64c-0.057-0.336,2.658-3.681,6.238-6.581c4.976-4.049,9.269-6.422,19.589-7.075
				C184.576,73.976,182.673,78.124,175.889,81.497z"/>
			<path fill-rule="evenodd" clip-rule="evenodd" fill="#FFFFFF" d="M155.386,65.001c-0.217-1.314-1.075-2.109-2.407-2.174
				c-1.844-0.087-3.362,0.713-4.908,1.858c2.244,2.706,3.52,3.936,3.067,6.266c-0.558,2.855-2.206,6.451-6.477,8.891
				c-1.526,0.873-3.291,0.884-5.002,0.525c-1.384-0.29-3.241-1.25-4.511-3.338c-0.422-0.699-0.65-1.364-0.918-2.122
				c0.271-0.255,2.395-1.825,2.856-2.156c3.872-2.769,4.456-3.673,6.632-6.667c1.523-2.084,2.39-4.667,2.957-7.48
				c0.604-2.942-0.424-6.444-1.656-6.979c-1.582-0.693-6.68,1.104-8.164,2.05c-2.707,1.737-5.386,3.966-7.045,7.96
				c-2.771,6.644-0.301,13.668-0.344,13.709c-1.078,0.957-2.284,1.848-4.924,3.439c-4.664,2.822-10.432,1.092-11.218-5.382
				c1.093-0.636,3.937-1.739,4.789-2.239c4.38-2.575,6.354-4.926,8.708-9.323c3.747-6.993,2.306-9.997,1.348-10.638
				c-0.549-0.367-3.752-0.235-4.887,0.039c-3.425,0.817-5.841,2.301-9.02,5.43c-3.332,3.294-5.551,8.22-5.916,13.511
				c-0.036,0.551,0.02,1.377-0.031,1.947c-0.58,0.174-1.527,0.285-2.07,0.414l0.006,0.029c-2.182,0.295-4.619,0.423-5.361,0.521
				c2.964-6.195,8.088-20.914,12.836-29.759c0.732-1.357,2.25-3.813,4.273-4.184c1.919-0.355,4.085,1.388,3.66,3.237
				c-0.396,1.728-0.961,2.653-3.285,3.464c0.505,0.356,1.074,0.835,1.428,0.987c1.795,0.764,3.52,0.453,5.179-0.354
				c1.554-0.75,2.349-2.049,2.001-3.711c-0.225-1.074-0.642-2.201-1.277-3.101c-1.707-2.429-4.256-3.204-6.992-3.479
				c-5.646-0.559-10.657,6.107-12.73,10.689C104.157,50.915,96.155,69.3,94.5,73.489c-0.612-0.01-1.171-0.061-1.97-0.091
				c-1.203-0.146-4-0.421-4.687-0.487c4.298-9.205,17.229-39.241,20.138-44.766c0.714-1.368,1.941-2.135,3.613-2.172
				c1.955-0.054,2.633,1.169,2.136,3.004c-0.382,1.405-1.665,2.699-3.003,3.646c0.5,0.355,0.793,0.65,1.148,0.801
				c1.789,0.763,3.515,0.451,5.172-0.349c1.558-0.751,2.346-2.053,2.006-3.711c-0.225-1.079-0.645-2.198-1.281-3.107
				c-1.703-2.417-3.881-3.507-6.617-3.25c-5.162,0.476-8.27,4.168-10.738,8.567c-3.053,5.445-13.74,31.472-18.102,40.202
				c-0.179-0.062-0.631-0.194-1.084-0.328c-0.858-0.31-2.882-1.083-3.168-1.184c0.236-0.875,0.453-1.385,0.678-2.17
				c0.982-3.361,1.645-7.071,0.993-10.245c-0.219-1.033-0.554-2.102-1.088-3.013c-1.138-1.936-4.218-4.281-5.202-4.106
				c-0.712,0.125-3.824,3.988-4.334,5.404c-2.24,6.179-1.398,10.394,2.371,14.417c0.464,0.497,1.044,0.881,1.59,1.336
				c-1.22,3.99-2.947,5.395-6.261,7.859c-2.119,1.568-5.122,2.002-6.733-0.154c-0.958-1.281-1.379-2.75-1.348-4.312
				c0.084-4.149,0.79-6.822,2.677-10.537c0.618-1.204,1.724-2.182,2.669-3.216c0.566-0.599,1.26-1.1,1.863-1.617
				c-1.18-2.199-3.53-2.832-5.44-1.549c-1.918,1.276-3.456,3.166-4.389,5.167c-1.985,4.231-2.717,7.344-2.654,12.006l0.226,2.36
				c-0.1,0.13-0.207,0.255-0.33,0.368c-1.611,1.438-3.936,3.064-7.353,3.329c-2.601,0.202-4.646-0.771-6.099-2.163
				c-1.455-1.389-2.403-3.21-2.846-5.451c-0.44-2.246-0.428-5.829,0.026-8.697c0.459-2.866,1.307-5.813,2.555-8.849
				c1.241-3.028,2.848-6.013,4.815-8.938c1.716-2.549,3.648-4.87,5.771-6.982c0,0,4.399-3.861,6.458-5.235
				c8.455-5.686,20.516-2.76,20.516-2.76c0.186,0.601,0.507,5.494-3.557,9.495c-4.148,4.09-9.094,5.271-10.723,5.209
				c-1.445-0.054-3.211-0.191-3.775-1.866c3.084,0.055,6.094-0.484,8.352-1.65c5.485-2.847,5.947-5.235,6.922-7.326
				c0.023-0.041,0.662-1.989,0.332-2.368c-0.277-0.322-1.996-0.35-2.308-0.358c-2.442-0.043-5.419-0.146-9.123,1.318
				c-3.105,1.229-5.608,3.111-6.765,4.983c-3.295,4.523-1.141,7.35-0.086,8.283c1.055,0.941,2.665,1.65,4.631,1.778
				c4.867,0.316,11.398-2.914,14.977-6.604c3.58-3.679,3.684-5.791,4.129-7.214c0.487-1.54,0.91-4.852,0.501-5.349
				c-0.566-0.685-2.721-1.351-3.778-1.554c-4.55-0.852-10.064-1.928-20.582,1.309c-2.449,0.75-5.1,2.136-7.144,3.501
				c-1.779,1.19-3.991,2.87-5.627,4.18c-0.022-1.301-0.173-2.732-0.54-4.333c-1.786-7.771-8.319-8.081-14.179-11.097
				c-5.962-3.057-13.701-5.422-14.962-10.523c0,0-3.333,10.562,11.263,17.337c7.144,3.313,12.544,7.368,15.499,11.208
				c-0.039,0.032-0.074,0.069-0.102,0.098c-3.602-3.884-10.754-6.911-14.848-8.809l-1.554-0.718
				c-3.025-1.407-5.577-3.316-7.621-5.673c0.985,3.613,4.142,11.62,13.439,15.938c2.525,1.175,4.887,2.09,6.968,2.859
				c-0.08,0.083-0.147,0.173-0.228,0.251c-0.26-0.069-0.583-0.139-0.974-0.195c-2.536-0.38-6.597-1.205-9.575-3.048
				c-2.841-1.755-3.63-1.943-5.294-4.062c0.841,6.506,6.841,12.254,11.865,12.584c-1.722,2.872-3.024,5.742-3.896,8.613
				c-0.958,3.166-1.395,7.255-1.292,10.202c0.103,2.949,0.818,5.572,2.135,7.865c1.319,2.305,3.128,5.195,5.721,6.604
				c2.593,1.414,4.89,2.007,8.849,2.079c3.527,0.066,6.826-2.502,9.264-4.016c0.313-0.194,0.775-0.609,1.283-1.111
				c1.23,1.973,2.846,3.248,2.846,3.248c1.059,0.794,3.184,1.645,4.474,1.714c2.183,0.128,4.215-0.62,6.116-1.714
				c3.892-2.238,6.021-4.396,7.968-8.305c0.272-0.535,0.559-1.055,0.871-1.651c0.224,0.101,1.964,0.62,3.054,0.933l0.004,0.012
				c0.261,0.061,0.521,0.129,0.762,0.248c-0.787,2.506-3.348,8.156-7.07,14.604c-1.719,3.215-4.551,6.37-7.301,8.056
				c-1.14,0.694-3.583,1.196-4.742,0.163c-1.07-0.965-1.568-2.894-1.064-4.044c0.492-1.124,2.998-1.142,2.504-2.778
				c-0.937-0.879-1.75-1.251-2.967-1.479c-1.819-0.341-3.769,1.061-4.287,2.763c-1.878,6.214,3.534,9.472,8.217,9.239
				c3.675-0.183,8.205-2.373,11.863-6.693c4.969-5.869,8.02-13.52,10.395-18.785c0.571,0.091,1.943,0.197,3.219,0.29l-0.018,0.032
				c0.509,0.045,2.768,0.273,3.523,0.262c-2.295,5.681-9.513,21.224-13.41,27.98c-1.549,2.685-2.355,3.849-4.861,5.867
				c-1.047,0.845-3.348,1.733-4.809,0.789c-1.083-0.697-1.686-1.904-1.184-3.053c0.49-1.123,1.078-1.352,2.04-2.604
				c-1.038-0.726-2.01-1.148-3.224-1.381c-1.82-0.339-3.614,0.66-4.13,2.361c-1.883,6.215,5.212,9.344,9.73,8.512
				c4.228-0.775,7.484-4.062,10.063-7.53c3.75-5.054,5.033-7.247,7.094-11.468c2.347-4.822,8.416-18,8.951-19.615
				c1.428-0.29,6.891-0.705,9.516-1.26c0.256,1.042,0.482,1.982,0.744,2.519c2.212,4.554,6.412,6.688,11.468,5.717
				c2.089-0.403,4.589-2.019,6.497-3.404c1.749-1.276,3.291-2.356,3.291-2.356c2.611,5.979,6.956,6.33,8.645,6.404
				c4.639,0.197,8.314-1.686,12.204-7.023C154.58,73.069,155.717,66.995,155.386,65.001z M64.334,37.183
				c3.825-1.356,6.287-1.059,6.287-1.059c-1.605,3.791-6.607,6.5-12.178,6.954C59.478,40.236,60.999,38.365,64.334,37.183z
				 M74.334,68.667c-4.271-3.221-4.603-8.007-2.701-11.641c0.045-0.099,1.095-1.753,1.879-1.904c0.719-0.138,1.814,1.434,2.054,2.29
				C76.639,61.284,76.02,64.952,74.334,68.667z M114.402,65.157c1.032-2.31,2.651-5.56,4.224-7.158
				c2.322-2.368,5.914-3.96,6.661-3.534c0.542,0.314,0.005,2.782-0.854,4.838c-0.991,2.378-1.683,4.297-3.816,6.538
				c-1.934,2.023-4.858,2.93-7.53,4.354C113.588,67.716,113.746,66.614,114.402,65.157z M133.432,72.216
				c-0.055-0.885-0.62-1.988-0.27-4.583c0.458-3.431,1.457-5.937,3.583-8.685c1.839-2.378,5.796-4.146,6.238-3.881
				c0.438,0.263,0.773,2.484,0.368,3.862c-1.377,4.662-2.521,6.898-6.284,10.155C136.362,69.693,134.142,71.716,133.432,72.216z"/>
			<g>
				<path fill-rule="evenodd" clip-rule="evenodd" fill="#FFFFFF" d="M274.637,97.132c-2.602,0-5.192-0.605-7.49-1.752
					c-5.902-2.952-9.427-7.952-10.477-14.861c-1.144-7.533,0.609-12.047,3.263-18.88l0.093-0.237c0.392-0.998,0.467-1.712,0.44-2.05
					c-0.085-0.018-0.17-0.028-0.259-0.028c-0.583,0-1.924,0.561-4.36,4.319c-1.91,2.949-4.009,9.677-5.541,14.59
					c-1.177,3.774-1.717,5.468-2.175,6.072c-0.086,0.114-0.196,0.209-0.321,0.278c-0.432,0.238-0.874,0.358-1.313,0.358
					c-3.017,0-4.216-5.308-4.663-8.471c-0.692-4.976,0.017-7.854,1.09-12.213c0.132-0.534,0.269-1.091,0.41-1.677
					c0.048-0.222,0.092-0.451,0.13-0.679c-0.05,0.115-0.1,0.229-0.149,0.344c-0.688,1.58-1.545,3.546-2.693,5.784
					c-4.173,8.91-8.187,13.348-12.253,13.533c-0.101,0.017-0.271,0.027-0.432,0.027c-2.075,0-2.711-1.777-3.132-2.954
					c-0.173-0.67-0.228-0.932-0.289-1.435c-0.051,0.045-0.102,0.09-0.151,0.135c-0.76,0.676-1.416,1.26-2.217,1.782l-0.295,0.194
					c-1.335,0.88-3.162,2.086-5.257,2.086c-0.324,0-0.648-0.029-0.965-0.086c-1.429-0.252-3.822-2.136-4.873-5.555
					c-0.665,1.206-1.412,2.355-2.236,3.438c-2.032,2.665-4.475,3.224-6.165,3.224c-3.338,0-6.695-2.218-8.354-5.519
					c-1.507-2.996-2.296-6.037-2.352-9.058c-0.273,0.052-0.54,0.104-0.757,0.154c-0.214,4.04-1.869,7.409-5.174,10.544
					c-2.328,2.203-7.198,5.143-11.641,6.252c-5.31,1.323-7.325,1.483-14.383,1.646c-0.581,0.013-1.182,0.021-1.794,0.021
					c-2.307,0-4.326-0.11-6.002-0.327c-0.317-0.041-0.603-0.232-0.762-0.511c-0.335-0.583,0.498-3.426,2.474-8.45
					c2.031-4.74,4.481-11.123,6.45-16.252c1.527-3.98,2.734-7.123,3.265-8.25c0.5-1.068,0.985-2.039,1.432-2.934
					c1.573-3.15,2.612-5.23,2.16-7.199c-0.1-0.436-0.01-0.855,0.252-1.184c0.314-0.395,0.825-0.595,1.518-0.595
					c1.608,0,4.744,1.102,5.975,2.34c0.425,0.427,0.639,0.884,0.636,1.356c-0.01,2.694-1.885,5.492-3.7,8.198
					c-0.473,0.705-0.932,1.39-1.339,2.046c4.164-1.09,9.983-5.293,13.978-9.281c3.869-3.86,4.604-7.56,4.497-8.548
					c-1.823-1.145-4.481-1.749-7.711-1.749c-6.359,0-13.405,2.304-16.806,4.472c-0.696,0.443-0.979,1.535-1.279,2.69
					c-0.443,1.707-1.049,4.044-3.688,4.044c-1.253,0-2.803-0.548-4.877-1.724c-1.698-0.966-2.034-2.162-2.017-2.995
					c0.06-2.93,4.629-5.896,8.452-7.869c4.586-2.36,10.194-3.925,16.219-4.525c0.478-0.047,1.012-0.071,1.586-0.071
					c5.531,0,16.507,2.506,17.72,4.409c0.924,1.438,0.98,8.844-5.667,15.513l-0.291,0.293c-2.805,2.82-5.112,5.141-9.472,7.433
					c3.946,1.172,6.896,3.342,8.798,6.476c0.887-0.055,1.552-0.156,2.249-0.263c0.085-0.013,0.17-0.026,0.256-0.039
					c0.554-2.224,1.513-4.403,2.855-6.485c1.33-2.06,4.891-5.948,7.852-7.594c3.758-2.087,6.678-2.525,8.467-2.525
					c1.66,0,3.074,0.382,3.781,1.023c1.165,1.055,1.111,2.854-0.219,7.122c-0.113,0.473-0.948,3.481-4.565,7.046
					c-1.009,0.994-3.737,3.42-7.299,4.494c-0.687,0.205-1.344,0.381-1.921,0.535c-0.497,0.133-1.087,0.29-1.423,0.403
					c-0.261,1.073-0.453,3.048,0.313,6.08c0.681,2.708,1.836,4.323,3.09,4.323c0.584,0,1.229-0.342,1.815-0.961
					c1.437-1.519,2.979-4.995,4.339-8.062c1.023-2.308,1.912-4.312,2.706-5.394c0.062-0.179,0.123-0.346,0.186-0.5
					c1.53-3.769,4.625-7.118,8.951-9.69c1.607-0.954,4.343-2.068,6.765-2.068c1.9,0,2.871,0.722,3.352,1.327
					c0.699,0.882,0.875,2.099,0.521,3.616c-0.016,0.066-0.037,0.129-0.063,0.189c0.998,0.189,2.055,0.769,2.986,1.338
					c0.071,0.043,0.138,0.096,0.196,0.156c1.389,1.413,0.603,3.795-0.092,5.896c-0.124,0.377-0.245,0.742-0.345,1.081
					c-0.206,0.688-0.543,1.646-0.933,2.755c-0.776,2.208-2.197,6.252-2.562,8.673c4.03-3.604,6.72-10.626,8.088-14.197
					c0.188-0.489,0.352-0.918,0.494-1.273c0.326-0.812,0.525-1.486,0.7-2.081c0.593-2.011,1.071-3.167,4.025-3.532
					c0.844-0.104,1.559-0.154,2.188-0.154c4.436,0,4.833,2.873,4.859,5.815c0.008,0.757-0.295,2.139-0.801,4.092
					c2.137-4.759,5.35-9.448,10.243-11.148c0.762-0.266,1.592-0.401,2.465-0.401c1.452,0,2.919,0.393,3.568,0.956
					c1.076,0.936,1.838,1.831,1.415,4.386c-0.246,1.503-1.063,4.075-1.671,5.532c-1.351,3.261-3.844,11.879-2.926,17.691
					c1.123,7.062,7.717,10.544,10.833,10.761c0.165,0.012,0.331,0.017,0.498,0.017c2.142,0,4.306-0.91,5.336-1.81
					c4.466-3.882,3.205-9.33,1.361-13.217c-0.038-0.071-0.247-0.343-0.774-0.791c-0.655-0.243-1.181-0.353-1.685-0.353
					c-0.939,0-1.995,0.39-3.53,1.305c-0.164,0.098-0.345,0.145-0.523,0.145c-0.34,0-0.673-0.17-0.867-0.478
					c-0.965-1.525-1.904-3.382-1.563-5.587c0.144-0.9,0.855-2.414,4.011-2.498c0.009,0,0.112-0.002,0.121-0.002
					c1.033,0,2.285,0.386,4.057,1.251c3.259,1.55,6.395,4.644,7.446,7.351c1.878,4.803,1.457,9.591-1.186,13.48
					C284.574,94.782,279.782,97.132,274.637,97.132C274.637,97.132,274.638,97.132,274.637,97.132z M159.183,80.555
					c0.601,0.099,1.372,0.182,2.07,0.182c0.125,0,0.247-0.003,0.363-0.009c0.456-0.021,0.902-0.038,1.344-0.055
					c3.516-0.134,6.551-0.249,10.401-2.162c5.604-2.785,7.7-6.016,8.741-9.929c-8.786,0.722-12.774,2.799-17.63,6.747
					C162.097,77.261,160.146,79.366,159.183,80.555z M229.474,56.409c-3.282,0.108-6.265,1.685-7.807,3.247
					c-2.578,2.613-3.328,3.938-4.224,7.457c-1.198,4.713-0.674,7.832-0.185,8.635c1.04-0.33,4.333-2.558,7.176-6.313l0.494-0.651
					c2.649-3.489,3.1-4.083,4.183-8.279c-0.465-1.877-0.395-3.129,0.219-3.927C229.373,56.522,229.42,56.465,229.474,56.409z
					 M175.035,60.346c-3.369,0-7.231,2.434-10.08,6.352c-1.339,1.842-2.212,3.531-2.899,5.084c2.544-2.085,6.196-4.594,10.753-5.935
					c4.034-1.185,6.944-1.538,8.494-1.703c-0.451-0.724-1.104-1.625-1.668-2.086C178.248,60.922,176.7,60.346,175.035,60.346z
					 M209.874,52.116c-0.961,0-3.456,0.249-5.872,2.554c-2.014,1.913-3.267,3.663-4.039,7.209c3.817-1.45,4.782-2.468,6.94-4.746
					l0.616-0.649c1.904-1.997,2.438-3.606,2.541-4.365C210.003,52.117,209.941,52.116,209.874,52.116z"/>
				<path fill="#636969" d="M178.614,30.165c5.965,0,16.051,2.673,16.855,3.935c0.625,0.972,0.854,7.836-5.528,14.239
					c-3.443,3.459-5.94,6.073-12.139,8.802c5.533,0.88,9.258,3.404,11.324,7.176c1.724-0.058,2.67-0.275,3.922-0.44
					c0.492-2.348,1.452-4.638,2.875-6.845c1.34-2.074,4.766-5.74,7.488-7.254c3.303-1.834,6.028-2.396,7.969-2.396
					c1.615,0,2.687,0.389,3.093,0.757c0.599,0.542,0.878,1.618-0.521,6.094c0,0-0.612,2.955-4.295,6.584
					c-1.59,1.567-4.105,3.408-6.875,4.243c-2.042,0.612-3.839,0.954-3.928,1.257c-0.479,1.529-0.589,3.875,0.2,6.994
					c0.914,3.636,2.502,5.097,4.084,5.097c0.896,0,1.791-0.47,2.559-1.28c2.687-2.84,5.436-11.369,7.192-13.643
					c0.009-0.015,0.013-0.016,0.022-0.027c0.076-0.223,0.148-0.426,0.223-0.612c1.518-3.736,4.598-6.855,8.523-9.189
					c1.77-1.05,4.279-1.924,6.241-1.924c2.057,0,3.511,0.96,2.874,3.685c-0.314-0.027-0.628-0.04-0.941-0.04
					c-3.569,0-7.022,1.662-8.895,3.559c-2.717,2.753-3.561,4.281-4.487,7.924c-1.372,5.396-0.682,9.377,0.443,9.941
					c0.035,0.006,0.074,0.009,0.115,0.009c1.238,0,5.105-2.612,8.243-6.758c3.197-4.222,3.668-4.657,4.918-9.549
					c-0.765-2.874-0.122-3.704,0.895-3.704c0.996,0,2.354,0.799,3.096,1.252c1.154,1.174-0.108,3.995-0.689,5.97
					c-0.869,2.895-4.346,11.359-3.471,13.72c5.764-3.567,9.142-13.721,10.492-17.092c1.357-3.375,0.643-4.574,3.9-4.977
					c0.786-0.097,1.469-0.146,2.062-0.146c3.204,0,3.805,1.45,3.835,4.8c0.018,1.822-2.496,9.529-2.73,11.736
					c-0.07,0.668-0.545,4.249-0.196,5.057c0.797-0.44,3.241-19.245,13.729-22.89c0.711-0.248,1.445-0.345,2.129-0.345
					c1.363,0,2.524,0.383,2.897,0.706c0.806,0.701,1.443,1.22,1.075,3.444c-0.226,1.375-1.013,3.882-1.606,5.305
					c-1.322,3.193-3.958,12.127-2.992,18.246c1.217,7.652,8.298,11.381,11.774,11.623c0.189,0.013,0.38,0.02,0.569,0.02
					c2.359,0,4.75-0.964,6.01-2.062c4.474-3.889,3.969-9.463,1.613-14.429c-0.162-0.347-0.683-0.843-1.175-1.248
					c-0.786-0.307-1.484-0.481-2.21-0.481c-1.138,0-2.343,0.43-4.055,1.449c-1.018-1.609-1.685-3.152-1.417-4.883
					c0.2-1.25,1.667-1.594,3.025-1.63c0.03-0.001,0.062-0.001,0.094-0.001c0.756,0,1.799,0.264,3.607,1.146
					c3.231,1.537,6.042,4.488,6.94,6.801c1.626,4.158,1.571,8.634-1.078,12.533c-2.445,3.599-6.941,5.682-11.658,5.682
					c-2.365,0-4.787-0.523-7.033-1.644c-6.426-3.214-9.065-8.472-9.92-14.099c-1.115-7.346,0.586-11.609,3.297-18.592
					c0.603-1.533,0.689-2.886,0.186-3.294c-0.257-0.071-0.566-0.18-0.959-0.18c-1.02,0-2.594,0.735-5.221,4.786
					c-3.169,4.894-6.683,19.296-7.672,20.601c-0.286,0.158-0.56,0.23-0.818,0.23c-1.971,0-3.172-4.218-3.648-7.589
					c-0.749-5.381,0.221-8.255,1.481-13.507c0.06-0.272,0.733-3.54,0.004-4.202c-0.045-0.041-0.091-0.061-0.141-0.061
					c-0.688,0-1.858,3.888-4.484,9.004c-2.453,5.237-6.643,12.761-11.388,12.978c-0.137,0.018-0.265,0.025-0.385,0.025
					c-1.254,0-1.68-0.911-2.167-2.273c-0.248-0.981-0.19-0.865-0.448-3.126c-1.565,1.263-2.506,2.293-3.734,3.095
					c-1.337,0.875-3.063,2.114-4.991,2.114c-0.257,0-0.518-0.022-0.781-0.07c-1.058-0.187-3.308-1.865-4.195-5.264
					c-0.211-0.818-0.275-1.862-0.243-3.001c-0.765,1.935-1.928,4.248-3.67,6.535c-1.51,1.979-3.429,2.82-5.35,2.82
					c-2.979,0-5.966-2.023-7.438-4.954c-1.668-3.315-2.386-6.607-2.224-9.823c-1.766,0.301-2.799,0.506-2.804,0.69
					c-0.059,4.179-1.69,7.468-4.876,10.49c-2.121,2.007-6.817,4.91-11.184,6.001c-5.125,1.277-6.944,1.449-14.158,1.615
					c-0.573,0.013-1.166,0.02-1.771,0.02c-1.949,0-4.013-0.078-5.87-0.318c-0.139-0.021,1.271-4.361,2.533-7.569
					c3.577-8.348,8.502-21.919,9.688-24.442c2.346-5.008,4.342-7.847,3.663-10.798c-0.085-0.371,0.235-0.524,0.771-0.524
					c1.704,0,5.593,1.56,5.586,2.665c-0.014,3.668-4.274,8.065-5.903,11.545c0.034,0,0.068,0.001,0.103,0.001
					c4.748,0,12.433-5.805,16.488-9.852c4.827-4.816,5.181-9.561,4.576-9.973c-2.173-1.475-5.217-2.074-8.514-2.074
					c-6.299,0-13.521,2.188-17.356,4.633c-2.37,1.507-1.136,6.574-4.416,6.574c-0.981,0-2.366-0.453-4.372-1.591
					c-4.876-2.773,3.461-7.545,6.399-9.062c4.062-2.09,9.366-3.77,15.851-4.416C177.585,30.187,178.083,30.165,178.614,30.165
					 M198.633,63.446c5.909-2.029,6.622-3.107,9.627-6.254c2.875-3.014,3.051-5.478,2.722-5.933
					c-0.051-0.072-0.461-0.169-1.108-0.169c-1.458,0-4.117,0.489-6.579,2.837C200.709,56.382,199.37,58.658,198.633,63.446
					 M159.376,75.517c1.633-1.41,6.584-6.586,13.722-8.686c6.426-1.887,9.816-1.607,9.737-1.93c-0.12-0.521-1.438-2.724-2.551-3.636
					c-1.657-1.357-3.447-1.945-5.25-1.944c-4.027,0-8.116,2.933-10.909,6.774C161.374,69.88,160.495,73.113,159.376,75.517
					 M161.253,81.761c0.143,0,0.281-0.003,0.414-0.01c4.025-0.186,7.595-0.059,12.149-2.322c6.781-3.37,8.684-7.514,9.601-11.969
					c-10.322,0.649-14.613,3.025-19.592,7.074c-3.575,2.906-6.288,6.25-6.235,6.588C157.638,81.382,159.688,81.761,161.253,81.761
					 M178.614,28.115L178.614,28.115c-0.608,0-1.176,0.026-1.687,0.076c-6.153,0.613-11.888,2.215-16.586,4.634
					c-5.922,3.055-8.952,6.002-9.008,8.759c-0.019,0.91,0.286,2.628,2.534,3.906c2.237,1.269,3.947,1.859,5.385,1.859
					c3.432,0,4.244-3.13,4.679-4.812c0.203-0.783,0.481-1.856,0.836-2.082c3.28-2.091,10.091-4.312,16.256-4.312
					c2.741,0,5.021,0.448,6.658,1.302c-0.156,1.196-1.002,4.085-4.168,7.244c-2.997,2.991-7.149,6.142-10.632,7.886
					c1.753-2.63,3.431-5.343,3.442-8.121c0.003-0.515-0.156-1.298-0.934-2.081c-1.414-1.423-4.867-2.642-6.702-2.642
					c-1.271,0-1.962,0.533-2.319,0.98c-0.454,0.569-0.618,1.317-0.45,2.051c0.354,1.54-0.469,3.292-2.077,6.513
					c-0.439,0.878-0.937,1.875-1.444,2.958c-0.544,1.159-1.757,4.317-3.292,8.316c-1.966,5.121-4.412,11.494-6.423,16.188
					c-0.008,0.02-0.016,0.038-0.024,0.058c-3.158,8.03-2.794,8.664-2.409,9.336c0.31,0.54,0.854,0.913,1.469,1.009
					c0.017,0.003,0.034,0.005,0.05,0.008c1.719,0.223,3.783,0.335,6.134,0.335c0.62,0,1.228-0.007,1.815-0.021
					c7.154-0.164,9.199-0.326,14.61-1.675c4.612-1.152,9.674-4.21,12.097-6.501c2.337-2.218,3.896-4.55,4.745-7.137
					c0.41,1.745,1.05,3.486,1.918,5.211c1.828,3.638,5.554,6.083,9.27,6.083c2.717,0,5.195-1.288,6.979-3.627
					c0.439-0.577,0.858-1.173,1.255-1.785c1.298,2.473,3.283,4.011,4.867,4.29c0.366,0.066,0.753,0.102,1.138,0.102
					c2.402,0,4.378-1.305,5.821-2.256l0.292-0.192c0.419-0.274,0.804-0.565,1.176-0.869c0.465,1.293,1.344,3.508,4.052,3.508
					c0.18,0,0.367-0.011,0.558-0.032c4.149-0.237,8.144-4.271,12.18-12.312c-0.203,1.882-0.198,3.878,0.145,6.339
					c0.604,4.271,2.078,9.356,5.679,9.356c0.615,0,1.224-0.163,1.808-0.485c0.251-0.139,0.471-0.328,0.644-0.557
					c0.558-0.735,1.036-2.215,2.337-6.387c1.43-4.582,3.589-11.507,5.423-14.338c0.979-1.511,1.737-2.43,2.293-2.988l-0.022,0.057
					c-2.713,6.987-4.505,11.602-3.32,19.405c1.103,7.259,4.813,12.515,11.029,15.624c2.442,1.218,5.19,1.861,7.95,1.861
					c5.479,0,10.596-2.521,13.354-6.58c2.839-4.178,3.297-9.303,1.292-14.432c-1.154-2.971-4.432-6.223-7.969-7.905
					c-1.927-0.94-3.274-1.346-4.488-1.346l-0.154,0.002c-4.034,0.107-4.833,2.382-4.989,3.354c-0.396,2.565,0.705,4.715,1.709,6.303
					c0.389,0.615,1.054,0.954,1.734,0.954c0.357,0,0.719-0.093,1.047-0.289c1.348-0.802,2.274-1.16,3.006-1.16
					c0.337,0,0.702,0.071,1.158,0.228c0.225,0.2,0.355,0.341,0.411,0.407c1.674,3.57,2.805,8.496-1.143,11.927
					c-0.868,0.757-2.796,1.56-4.665,1.56c-0.144,0-0.286-0.005-0.43-0.015c-1.312-0.092-3.55-0.924-5.58-2.577
					c-1.648-1.342-3.734-3.702-4.31-7.323c-0.875-5.54,1.599-14.09,2.861-17.14c0.629-1.506,1.478-4.182,1.735-5.758
					c0.508-3.066-0.523-4.253-1.719-5.293c-0.882-0.765-2.546-1.238-4.276-1.238c-0.988,0-1.933,0.154-2.805,0.459
					c-3.438,1.194-6.077,3.731-8.116,6.738c-0.155-2.351-0.992-5.556-5.846-5.556c-0.672,0-1.428,0.053-2.312,0.162
					c-3.497,0.432-4.23,2.038-4.885,4.259c-0.168,0.573-0.359,1.221-0.667,1.987c-0.146,0.361-0.312,0.796-0.501,1.29
					c-0.988,2.579-2.684,7.007-5.047,10.523c0.526-1.678,1.105-3.327,1.445-4.293c0.394-1.122,0.734-2.09,0.945-2.794
					c0.101-0.341,0.218-0.694,0.339-1.061c0.747-2.262,1.677-5.078-0.15-6.937c-0.118-0.12-0.25-0.225-0.394-0.312
					c-0.717-0.438-1.506-0.881-2.316-1.182c0.205-1.495-0.083-2.745-0.858-3.723c-0.62-0.782-1.845-1.715-4.154-1.715
					c-2.629,0-5.568,1.191-7.287,2.211c-1.884,1.12-3.546,2.384-4.96,3.766c0.153-0.414,0.237-0.719,0.279-0.889
					c1.271-4.087,1.63-6.601-0.083-8.152c-0.903-0.818-2.532-1.288-4.469-1.288c-1.91,0-5.015,0.46-8.964,2.654
					c-3.147,1.75-6.793,5.732-8.215,7.934c-1.271,1.972-2.214,4.028-2.812,6.13c-0.367,0.054-0.738,0.104-1.154,0.145
					c-1.653-2.49-3.955-4.367-6.881-5.615c3.271-2,5.328-4.069,7.747-6.501l0.292-0.293c6.985-7.01,6.98-14.956,5.8-16.793
					C195.557,30.426,183.576,28.115,178.614,28.115L178.614,28.115z M201.515,60.125c0.724-2.053,1.746-3.339,3.19-4.71
					c1.408-1.344,2.854-1.898,3.887-2.124c-0.338,0.674-0.901,1.529-1.815,2.486l-0.618,0.651
					C204.457,58.226,203.582,59.149,201.515,60.125L201.515,60.125z M217.873,74.274c-0.218-1.265-0.268-3.635,0.564-6.909
					c0.849-3.335,1.515-4.511,3.96-6.989c1.096-1.11,3.124-2.288,5.444-2.748c-0.142,0.96,0.011,1.988,0.215,2.868
					c-0.979,3.763-1.346,4.246-3.943,7.668l-0.494,0.651C221.506,71.605,219.223,73.443,217.873,74.274L217.873,74.274z
					 M165.09,68.304c0.216-0.329,0.446-0.663,0.693-1.002c2.66-3.658,6.205-5.931,9.251-5.931c1.423,0,2.752,0.498,3.951,1.48
					c0.149,0.123,0.313,0.292,0.479,0.486c-1.681,0.238-4.023,0.669-6.945,1.526C169.683,65.699,167.193,66.964,165.09,68.304
					L165.09,68.304z M200.62,67.784c0.255-0.071,0.543-0.147,0.803-0.217c0.586-0.156,1.254-0.335,1.949-0.543
					c3.783-1.141,6.662-3.699,7.725-4.747c0.033-0.032,0.066-0.065,0.099-0.097c-0.039,0.1-0.077,0.202-0.114,0.308
					c-0.834,1.193-1.716,3.181-2.725,5.457c-1.262,2.844-2.831,6.383-4.147,7.774c-0.379,0.399-0.779,0.639-1.069,0.639
					c-0.484,0-1.442-0.944-2.096-3.547C200.445,70.448,200.464,68.811,200.62,67.784L200.62,67.784z M161.288,79.711
					c0.986-1.057,2.309-2.349,3.831-3.586c4.398-3.577,8.068-5.565,15.541-6.376c-1.112,3.016-3.201,5.581-7.755,7.844
					c-3.653,1.815-6.587,1.927-9.984,2.056c-0.445,0.017-0.894,0.034-1.348,0.055C161.476,79.708,161.383,79.711,161.288,79.711
					L161.288,79.711z"/>
			</g>
			<g>
				<path fill-rule="evenodd" clip-rule="evenodd" fill="#FFFFFF" d="M69.721,114.016c-3.32,0-6.557-1.473-8.248-3.752
					c-1.317-1.774-1.646-3.924-0.952-6.216c0.573-1.886,2.339-3.152,4.397-3.152c0.302,0,0.606,0.028,0.904,0.085
					c1.349,0.255,2.468,0.732,3.629,1.547c0.229,0.16,0.383,0.408,0.425,0.686c0.042,0.276-0.031,0.559-0.203,0.78
					c-0.407,0.526-0.758,0.893-1.039,1.187c-0.406,0.424-0.65,0.679-0.878,1.196c-0.316,0.731,0.237,1.42,0.807,1.786
					c0.248,0.16,0.567,0.24,0.953,0.24c0.953,0,2.054-0.485,2.65-0.966c2.399-1.938,3.134-3.012,4.621-5.585
					c3.483-6.041,9.998-19.882,12.8-26.521c-0.64-0.047-1.297-0.107-1.749-0.148l-0.372-0.033c-0.084-0.008-0.165-0.024-0.243-0.051
					c-0.842-0.065-1.633-0.128-2.234-0.187c-0.202,0.453-0.41,0.922-0.624,1.403c-2.308,5.209-5.181,11.691-9.616,16.933
					c-3.566,4.206-8.276,6.845-12.6,7.057c-0.174,0.009-0.351,0.014-0.528,0.014c-3.151,0-6.12-1.361-7.747-3.552
					c-1.003-1.351-1.986-3.664-0.973-7.021c0.608-1.989,2.677-3.544,4.71-3.544c0.251,0,0.502,0.023,0.745,0.068
					c1.477,0.276,2.454,0.765,3.486,1.742c0.13,0.123,0.225,0.278,0.276,0.449c0.538,1.789-1.016,2.595-1.763,2.981
					c-0.251,0.131-0.718,0.373-0.786,0.504c-0.302,0.693,0.014,2.15,0.813,2.862c0.24,0.215,0.672,0.333,1.218,0.333
					c0.909,0,1.828-0.31,2.298-0.598c2.555-1.565,5.28-4.575,6.941-7.666c3.198-5.544,5.785-10.625,6.842-13.41
					c-0.029-0.01-0.058-0.021-0.085-0.034c-0.715-0.205-1.502-0.437-2.107-0.625c-0.157,0.295-0.307,0.578-0.449,0.864
					c-1.993,4.001-4.262,6.37-8.372,8.74c-2.202,1.255-4.215,1.863-6.158,1.863c-0.176,0-0.353-0.005-0.531-0.015
					c-1.6-0.09-3.895-1.066-5.033-1.922c-0.076-0.06-1.254-0.999-2.402-2.509c-0.219,0.185-0.408,0.325-0.576,0.429
					c-2.917,1.81-6.103,3.485-9.616,3.485l-0.201-0.002c-3.973-0.072-6.498-0.668-9.317-2.199c-2.453-1.337-4.456-3.402-6.124-6.314
					c-1.396-2.43-2.161-5.235-2.272-8.339c-0.118-3.347,0.407-7.481,1.336-10.535c0.761-2.507,1.851-5.039,3.246-7.544
					c-4.932-1.246-10.4-6.646-11.256-13.223c-0.06-0.457,0.193-0.897,0.617-1.076c0.129-0.055,0.265-0.081,0.399-0.081
					c0.159,0,0.315,0.037,0.458,0.107c-3.616-4.016-5.167-8.337-5.771-10.564c-0.125-0.461,0.085-0.948,0.508-1.173
					c0.129-0.069,0.268-0.107,0.407-0.118c-1.915-2.147-2.898-4.268-3.395-6.012c-1.064-3.741-0.189-6.598-0.151-6.718
					c0.135-0.428,0.531-0.717,0.977-0.717c0.011,0,0.022,0,0.033,0c0.459,0.015,0.853,0.333,0.963,0.778
					c0.88,3.56,5.769,5.809,10.498,7.984c1.313,0.604,2.671,1.229,3.938,1.879c1.37,0.705,2.806,1.268,4.194,1.812
					c4.444,1.743,9.039,3.544,10.514,9.963c0.199,0.868,0.344,1.716,0.438,2.561c1.508-1.165,2.992-2.246,4.163-3.031
					c2.382-1.591,5.083-2.912,7.413-3.625c4.886-1.504,9.174-2.235,13.11-2.235c3.173,0,5.663,0.468,7.86,0.881l0.1,0.019
					c0.033,0.006,3.353,0.659,4.376,1.908c0.966,1.17-0.128,5.731-0.31,6.303c-0.06,0.191-0.114,0.399-0.172,0.623
					c-0.381,1.459-0.957,3.665-4.198,7.003c-3.844,3.954-10.315,6.936-15.053,6.936c-0.244,0-0.486-0.008-0.723-0.022
					c-2.058-0.135-3.92-0.857-5.247-2.033c-0.721-0.638-4.113-4.105-0.065-9.656c1.24-2.022,3.952-4.04,7.211-5.331
					c1.26-0.499,2.438-0.825,3.534-1.036c-2.966,0.34-6.328,1.203-9.215,3.146c-1.982,1.323-6.308,5.113-6.352,5.151
					c-2.065,2.058-3.964,4.355-5.597,6.785c-1.923,2.858-3.513,5.805-4.727,8.758c-1.205,2.942-2.04,5.842-2.481,8.617
					c-0.437,2.718-0.45,6.223-0.031,8.336c0.395,2.02,1.25,3.672,2.545,4.915c0.906,0.866,2.461,1.901,4.719,1.901
					c0.196,0,0.396-0.008,0.601-0.023c3.208-0.248,5.348-1.833,6.688-3.026l-0.179-1.919c-0.07-4.793,0.648-8.052,2.742-12.534
					c1.06-2.261,2.747-4.243,4.751-5.581c0.811-0.542,1.724-0.828,2.641-0.828c1.751,0,3.349,1.027,4.274,2.747
					c0.229,0.427,0.129,0.955-0.24,1.268c-0.184,0.155-0.375,0.309-0.567,0.464c-0.444,0.357-0.863,0.695-1.216,1.073l-0.147,0.161
					c-0.88,0.957-1.976,2.149-2.604,3.216c-1.978,3.35-2.232,5.632-2.313,9.697c-0.032,1.38,0.352,2.614,1.141,3.674
					c0.529,0.706,1.276,1.065,2.22,1.065c0.997,0,2.121-0.411,3.083-1.128c3.071-2.28,4.577-3.504,5.675-6.671
					c-0.388-0.3-0.786-0.612-1.145-0.998c-4.136-4.412-4.91-9.038-2.586-15.465c0.534-1.451,3.238-4.657,4.57-4.884
					c0.089-0.016,0.198-0.026,0.315-0.026c1.503,0,4.626,1.995,5.883,4.113c0.542,0.931,0.945,2.052,1.202,3.338
					c0.722,3.474,0.599,6.674-0.389,10.064c-0.103,0.346-0.2,0.638-0.297,0.93c-0.036,0.106-0.071,0.213-0.107,0.322
					c0.166,0.062,1.849,0.697,2.266,0.851c0.063,0.017,0.128,0.035,0.194,0.054c2.096-4.311,5.405-11.926,8.612-19.306
					c3.859-8.88,7.503-17.269,9.128-20.167c2.21-3.937,5.518-8.527,11.541-9.09c0.29-0.027,0.573-0.04,0.852-0.04
					c2.698,0,4.952,1.254,6.7,3.727c0.843,1.198,1.248,2.558,1.438,3.488c0.425,2.058-0.683,4.177-2.696,5.151
					c-1.112,0.537-1.964,0.766-2.85,0.766c-0.786,0-1.599-0.19-2.56-0.6c-0.463-0.195-0.878-0.485-1.403-0.853
					c-0.274-0.191-0.437-0.505-0.438-0.839c0-0.334,0.163-0.647,0.437-0.839c1.035-0.726,1.835-1.906,2.196-3.238
					c0.172-0.639,0.161-1.15-0.032-1.401c-0.205-0.269-0.709-0.309-0.991-0.309c-1.364,0.03-2.284,0.576-2.833,1.625
					c-1.678,3.197-6.726,14.631-11.608,25.688c-3.092,7.002-6.03,13.657-7.896,17.725c1.104,0.11,2.509,0.254,3.277,0.348
					c0.3,0.007,0.632,0.026,0.941,0.044c0.075,0.005,0.147,0.009,0.22,0.014c2.157-5.297,9.545-22.244,11.231-25.972
					c1.905-4.209,6.786-11.332,12.996-11.332c0.255,0,0.511,0.012,0.769,0.038c2.3,0.233,5.602,0.892,7.729,3.914
					c0.851,1.203,1.255,2.562,1.445,3.49c0.426,2.049-0.531,3.859-2.562,4.837c-1.245,0.598-2.394,0.888-3.513,0.888
					c-0.856,0-1.7-0.175-2.507-0.521c-0.371-0.16-0.773-0.463-1.2-0.784c-0.142-0.107-0.284-0.214-0.421-0.312
					c-0.311-0.223-0.472-0.601-0.418-0.979c0.055-0.379,0.316-0.696,0.677-0.822c1.97-0.687,2.298-1.326,2.622-2.726
					c0.106-0.466-0.117-0.873-0.323-1.132c-0.436-0.546-1.154-0.899-1.83-0.899c-0.109,0-0.217,0.009-0.325,0.029
					c-1.132,0.21-2.395,1.512-3.554,3.666c-2.887,5.375-5.887,12.87-8.533,19.482c-1.336,3.339-2.527,6.314-3.542,8.612
					c0.961-0.078,2.179-0.182,3.327-0.326c0.038-0.015,0.078-0.027,0.118-0.038c0.25-0.062,0.58-0.12,0.925-0.18
					c0.126-0.021,0.257-0.045,0.386-0.068c0-0.077-0.001-0.156-0.002-0.234c-0.002-0.346-0.003-0.684,0.017-0.959
					c0.377-5.475,2.642-10.638,6.213-14.161c3.342-3.299,5.917-4.845,9.499-5.706c0.715-0.172,2.067-0.293,3.288-0.293
					c1.597,0,2.115,0.202,2.411,0.399c0.411,0.276,3.83,2.934-1.006,11.971c-2.28,4.245-4.314,6.915-9.103,9.729
					c-0.456,0.266-1.285,0.628-2.244,1.048c-0.661,0.289-1.384,0.605-1.94,0.875c0.622,3.161,2.738,5.094,5.648,5.094
					c1.309,0,2.663-0.4,3.915-1.159c2.254-1.36,3.416-2.183,4.303-2.92c-0.798-3.038-1.638-8.494,0.55-13.744
					c1.84-4.415,4.793-6.739,7.439-8.429c1.461-0.932,5.45-2.368,7.757-2.368c0.552,0,1,0.078,1.369,0.238
					c1.991,0.871,2.859,5.159,2.252,8.129c-0.683,3.374-1.677,5.877-3.127,7.875l-0.215,0.296c-2.024,2.781-2.782,3.822-6.65,6.604
					c-0.398,0.282-1.55,1.137-2.245,1.665c0.165,0.441,0.335,0.845,0.577,1.241c1.331,2.191,3.283,2.748,3.85,2.867
					c0.633,0.133,1.23,0.2,1.777,0.2c0.964,0,1.783-0.199,2.503-0.61c4.069-2.324,5.499-5.74,5.982-8.197
					c0.301-1.558-0.301-2.368-2.25-4.696l-0.598-0.717c-0.179-0.216-0.262-0.496-0.229-0.775s0.18-0.532,0.405-0.7
					c1.371-1.022,3.064-2.068,5.235-2.068c0.112,0,0.226,0.003,0.34,0.009c1.81,0.094,3.066,1.226,3.36,3.028
					c0.408,2.419-0.893,8.712-3.785,12.674c-3.763,5.155-7.583,7.454-12.383,7.454c0,0,0,0,0,0c-0.228,0-0.458-0.005-0.691-0.015
					c-3.993-0.165-7.016-2.145-8.999-5.89c-0.603,0.427-1.424,1.013-2.296,1.647c-2.827,2.062-5.086,3.233-6.905,3.58
					c-0.863,0.167-1.723,0.252-2.552,0.252c-4.361,0-8.016-2.377-10.027-6.521c-0.22-0.452-0.399-1.068-0.584-1.785
					c-1.52,0.25-3.479,0.468-5.248,0.664c-1.066,0.118-2.087,0.231-2.763,0.327c-1.258,3.1-6.615,14.717-8.778,19.15
					c-2.07,4.247-3.399,6.523-7.187,11.627c-2.203,2.964-5.709,7.01-10.707,7.93C70.883,113.965,70.312,114.016,69.721,114.016z
					 M140.314,54.133c-1.143,0.424-3.592,1.778-4.831,3.379c-1.988,2.567-2.935,4.863-3.378,8.19
					c-0.15,1.112-0.12,1.904-0.037,2.532c0.474-0.412,0.983-0.865,1.394-1.23c0.36-0.32,0.668-0.594,0.863-0.762
					c3.578-3.099,4.628-5.131,5.966-9.666C140.516,55.821,140.443,54.754,140.314,54.133z M122.384,53.448
					c-1.112,0.321-3.406,1.476-5.099,3.201c-1.126,1.152-2.554,3.59-4.019,6.865c-0.401,0.895-0.604,1.649-0.84,2.78
					c0.163-0.076,0.324-0.151,0.485-0.227c1.874-0.871,3.645-1.694,4.886-2.997c1.84-1.928,2.523-3.584,3.388-5.681l0.226-0.545
					C122.003,55.424,122.302,54.152,122.384,53.448z M71.527,54.138c-0.298,0.236-0.836,0.922-1.07,1.323
					c-1.332,2.544-1.662,6.416,1.404,9.449c1.273-3.306,1.474-6.287,0.643-9.289C72.371,55.145,71.847,54.399,71.527,54.138z
					 M60.88,44.136c1.676,0,6.192-1.203,9.97-4.918c2.996-2.952,3.395-6.464,3.347-7.914c-0.235-0.044-0.525-0.096-0.864-0.149
					c0.045,0.043,0.082,0.085,0.114,0.123c0.768,0.891,0.009,2.996-0.151,3.409c-0.138,0.3-0.241,0.541-0.347,0.786
					c-0.845,1.958-1.896,4.394-7.063,7.074c-1.483,0.77-3.318,1.307-5.336,1.574C60.656,44.126,60.88,44.136,60.88,44.136z
					 M66.757,35.117c-1.012,0.1-2.432,0.355-4.154,0.967c-2.224,0.79-3.583,1.854-4.57,3.687
					C61.832,39.114,65.052,37.389,66.757,35.117z M20.175,35.522c0.378,0.422,0.717,0.737,1.091,1.024
					C20.885,36.209,20.522,35.868,20.175,35.522z"/>
				<path fill="#636969" d="M11.816,10.262c1.262,5.106,9,7.469,14.963,10.528c5.86,3.015,12.392,3.326,14.177,11.093
					c0.367,1.603,0.518,3.034,0.539,4.342c1.637-1.312,3.85-2.996,5.631-4.189c2.038-1.362,4.689-2.746,7.143-3.496
					c5.413-1.666,9.498-2.19,12.81-2.19c3.125,0,5.561,0.467,7.77,0.882c1.061,0.199,3.21,0.863,3.773,1.55
					c0.415,0.502-0.007,3.813-0.494,5.342c-0.451,1.435-0.553,3.54-4.129,7.224c-3.421,3.52-9.533,6.625-14.317,6.625
					c-0.222,0-0.442-0.007-0.658-0.021c-1.968-0.129-3.577-0.842-4.632-1.777c-1.059-0.938-3.214-3.763,0.083-8.286
					c1.153-1.875,3.661-3.754,6.761-4.982c2.949-1.167,5.438-1.342,7.559-1.342c0.546,0,1.067,0.012,1.566,0.021
					c0.312,0.004,2.033,0.038,2.31,0.36c0.329,0.382-0.312,2.326-0.329,2.371c-0.978,2.091-1.438,4.473-6.926,7.32
					c-2.141,1.111-4.964,1.653-7.887,1.653c-0.154,0-0.309-0.001-0.463-0.004c0.566,1.681,2.328,1.817,3.772,1.874
					c0.038,0.001,0.077,0.002,0.118,0.002c1.743,0,6.553-1.22,10.613-5.213c4.057-3.997,3.734-8.886,3.555-9.499
					c0,0-3.101-0.751-7.261-0.751c-4.045,0-9.092,0.711-13.259,3.516c-2.058,1.374-6.455,5.231-6.455,5.231
					c-2.129,2.118-4.059,4.435-5.771,6.984c-1.972,2.931-3.579,5.91-4.824,8.94c-1.241,3.031-2.09,5.98-2.546,8.846
					c-0.461,2.868-0.468,6.454-0.024,8.696c0.438,2.245,1.39,4.062,2.84,5.455c1.326,1.268,3.139,2.187,5.429,2.187
					c0.222,0,0.448-0.009,0.679-0.026c3.411-0.264,5.736-1.889,7.344-3.329c0.125-0.112,0.23-0.238,0.328-0.369l-0.221-2.364
					c-0.065-4.656,0.67-7.766,2.65-12.005c0.934-1.993,2.475-3.882,4.392-5.162c0.661-0.441,1.374-0.655,2.072-0.655
					c1.324,0,2.597,0.767,3.372,2.208c-0.61,0.517-1.303,1.012-1.87,1.62c-0.944,1.029-2.163,2.33-2.886,3.555
					c-2.117,3.587-2.372,6.043-2.455,10.198c-0.036,1.554,0.388,3.023,1.344,4.307c0.778,1.039,1.875,1.478,3.042,1.478
					c1.257,0,2.594-0.51,3.695-1.33c3.308-2.457,5.041-3.866,6.258-7.855c-0.545-0.449-1.128-0.838-1.59-1.334
					c-3.767-4.019-4.607-8.236-2.372-14.418c0.519-1.411,3.063-4.101,3.778-4.222c0.044-0.008,0.092-0.012,0.144-0.012
					c1.103,0,3.907,1.765,5.002,3.611c0.53,0.911,0.871,1.979,1.078,3.016c0.658,3.169,0.614,6.204-0.368,9.577
					c-0.23,0.775-0.44,1.291-0.68,2.164c0.289,0.1,2.311,0.871,3.172,1.188c0.449,0.126,0.903,0.26,1.085,0.32
					c4.355-8.723,15.045-34.756,18.097-40.201c2.467-4.395,5.579-8.088,10.742-8.57c0.257-0.024,0.509-0.036,0.756-0.036
					c2.382,0,4.313,1.102,5.863,3.293c0.636,0.903,1.051,2.027,1.271,3.103c0.344,1.664-0.588,3.272-2.139,4.023
					c-0.897,0.433-1.633,0.664-2.402,0.664c-0.655,0-1.335-0.167-2.158-0.518c-0.357-0.15-0.711-0.395-1.218-0.75
					c1.339-0.939,2.216-2.403,2.597-3.809c0.484-1.795-0.148-3.002-2.012-3.002c-0.041,0-0.082,0-0.123,0.001
					c-1.674,0.038-2.904,0.81-3.618,2.171c-2.898,5.523-15.835,35.562-20.132,44.768c0.689,0.067,3.479,0.338,4.688,0.486
					c0.801,0.027,1.355,0.082,1.967,0.094c1.658-4.191,9.664-22.58,11.484-26.604c1.993-4.403,6.696-10.729,12.062-10.729
					c0.222,0,0.444,0.011,0.667,0.033c2.736,0.277,5.286,1.06,6.992,3.483c0.638,0.901,1.058,2.022,1.278,3.105
					c0.344,1.653-0.443,2.958-2.002,3.709c-1.001,0.481-2.023,0.787-3.068,0.787c-0.691,0-1.392-0.134-2.104-0.438
					c-0.358-0.155-0.928-0.63-1.428-0.988c2.322-0.81,2.883-1.732,3.283-3.462c0.386-1.688-1.382-3.287-3.151-3.287
					c-0.171,0-0.342,0.015-0.511,0.046c-2.025,0.376-3.541,2.833-4.271,4.188c-4.752,8.846-9.88,23.568-12.839,29.76
					c0.741-0.102,3.178-0.232,5.358-0.52v-0.029c0.54-0.134,1.491-0.244,2.062-0.416c0.058-0.572-0.001-1.396,0.039-1.946
					c0.364-5.29,2.579-10.219,5.911-13.505c3.174-3.133,5.592-4.616,9.019-5.438c0.641-0.155,1.939-0.265,3.048-0.265
					c0.856,0,1.601,0.065,1.843,0.227c0.954,0.643,2.398,3.645-1.342,10.635c-2.362,4.398-4.336,6.754-8.718,9.328
					c-0.854,0.498-3.694,1.601-4.792,2.238c0.546,4.479,3.476,6.687,6.775,6.687c1.468,0,3.009-0.438,4.446-1.307
					c2.64-1.593,3.852-2.483,4.928-3.44c0.042-0.038-2.43-7.061,0.34-13.706c1.665-3.995,4.334-6.228,7.045-7.959
					c1.255-0.8,5.091-2.208,7.205-2.208c0.387,0,0.716,0.047,0.961,0.154c1.23,0.538,2.259,4.037,1.656,6.984
					c-0.568,2.806-1.438,5.391-2.953,7.479c-2.18,2.992-2.77,3.891-6.634,6.669c-0.462,0.327-2.583,1.898-2.862,2.15
					c0.275,0.762,0.496,1.431,0.918,2.122c1.271,2.093,3.133,3.047,4.515,3.336c0.66,0.139,1.328,0.223,1.987,0.223
					c1.049,0,2.075-0.211,3.012-0.746c4.268-2.438,5.917-6.029,6.479-8.889c0.45-2.329-0.821-3.557-3.064-6.265
					c1.459-1.089,2.904-1.864,4.623-1.864c0.095,0,0.192,0.002,0.289,0.007c1.332,0.069,2.186,0.857,2.4,2.17
					c0.337,2-0.806,8.074-3.602,11.904c-3.714,5.088-7.221,7.033-11.556,7.033c-0.213,0-0.429-0.004-0.647-0.014
					c-1.687-0.069-6.035-0.426-8.645-6.4c0,0-1.545,1.08-3.297,2.354c-1.904,1.389-4.406,3.004-6.494,3.402
					c-0.811,0.157-1.599,0.234-2.36,0.234c-3.993,0-7.25-2.12-9.105-5.944c-0.262-0.538-0.485-1.479-0.746-2.52
					c-2.629,0.546-8.087,0.969-9.517,1.258c-0.535,1.613-6.601,14.796-8.952,19.616c-2.06,4.225-3.342,6.416-7.089,11.466
					c-2.579,3.47-5.838,6.753-10.069,7.532c-0.48,0.088-0.989,0.132-1.513,0.132c-4.411,0-9.901-3.093-8.219-8.646
					c0.447-1.473,1.86-2.425,3.417-2.425c0.236,0,0.475,0.022,0.714,0.067c1.217,0.23,2.188,0.647,3.23,1.379
					c-0.967,1.25-1.555,1.482-2.045,2.598c-0.5,1.156,0.103,2.361,1.19,3.061c0.444,0.286,0.966,0.403,1.507,0.403
					c1.233,0,2.565-0.606,3.293-1.193c2.502-2.021,3.312-3.183,4.865-5.87c3.898-6.76,11.116-22.291,13.415-27.984
					c-0.022,0-0.046,0.001-0.072,0.001c-0.824,0-2.964-0.211-3.464-0.254l0.023-0.03c-1.275-0.098-2.648-0.205-3.215-0.289
					c-2.38,5.26-5.43,12.91-10.395,18.777c-3.664,4.322-8.193,6.515-11.868,6.695c-0.158,0.008-0.317,0.012-0.478,0.012
					c-4.559,0-9.55-3.248-7.738-9.252c0.467-1.525,2.088-2.814,3.729-2.814c0.186,0,0.372,0.017,0.557,0.051
					c1.224,0.229,2.038,0.596,2.97,1.479c0.492,1.639-2.017,1.652-2.507,2.781c-0.503,1.154-0.007,3.077,1.071,4.037
					c0.476,0.426,1.169,0.592,1.899,0.592c1.046,0,2.167-0.341,2.833-0.748c2.754-1.688,5.583-4.844,7.309-8.055
					c3.72-6.448,6.41-11.893,7.205-14.406c-0.244-0.113-0.635-0.391-0.903-0.45v-0.011c-1.087-0.312-2.829-0.826-3.054-0.938
					c-0.314,0.604-0.603,1.126-0.867,1.657c-1.949,3.913-4.079,6.067-7.967,8.31c-1.771,1.009-3.645,1.727-5.646,1.727
					c-0.157,0-0.314-0.005-0.473-0.014c-1.291-0.072-3.415-0.921-4.476-1.718c0,0-1.617-1.278-2.85-3.245
					c-0.503,0.498-0.961,0.914-1.281,1.111c-2.397,1.487-5.62,3.334-9.078,3.334c-0.061,0-0.121-0.001-0.182-0.002
					c-3.962-0.072-6.252-0.666-8.847-2.075c-2.599-1.416-4.405-3.621-5.724-5.924c-1.32-2.296-2.032-4.919-2.137-7.866
					c-0.104-2.951,0.329-7.034,1.292-10.199c0.872-2.873,2.172-5.747,3.895-8.611c-5.025-0.339-11.022-6.082-11.869-12.586
					c1.676,2.112,2.462,2.301,5.302,4.062c2.973,1.842,7.039,2.667,9.575,3.043c0.393,0.055,0.708,0.123,0.975,0.198
					c0.076-0.083,0.146-0.166,0.222-0.251c-2.073-0.772-4.436-1.681-6.963-2.856c-9.297-4.323-12.455-12.328-13.436-15.945
					c2.036,2.353,4.59,4.267,7.613,5.672l1.556,0.722c4.095,1.892,11.246,4.921,14.844,8.806c0.034-0.03,0.069-0.064,0.103-0.099
					c-2.95-3.836-8.351-7.89-15.494-11.205C8.486,20.828,11.816,10.262,11.816,10.262 M56.367,41.014
					c5.575-0.455,10.575-3.16,12.181-6.953c0,0-0.232-0.028-0.664-0.028c-0.976,0-2.974,0.145-5.624,1.085
					C58.92,36.304,57.404,38.173,56.367,41.014 M111.014,68.132c2.672-1.424,5.598-2.332,7.525-4.354
					c2.138-2.239,2.83-4.164,3.818-6.54c0.857-2.056,1.396-4.522,0.854-4.836c-0.081-0.046-0.196-0.069-0.339-0.069
					c-1.172,0-4.254,1.496-6.319,3.599c-1.569,1.605-3.188,4.852-4.223,7.164C111.676,64.554,111.51,65.652,111.014,68.132
					 M131.36,70.15c0.709-0.5,2.927-2.521,3.635-3.132c3.762-3.258,4.903-5.49,6.279-10.151c0.411-1.381,0.075-3.599-0.364-3.867
					c-0.029-0.018-0.074-0.026-0.133-0.026c-0.825,0-4.387,1.693-6.104,3.911c-2.126,2.745-3.127,5.252-3.584,8.682
					C130.737,68.169,131.301,69.261,131.36,70.15 M72.26,66.604c1.688-3.711,2.305-7.382,1.231-11.256
					c-0.228-0.817-1.242-2.295-1.961-2.295c-0.032,0-0.064,0.003-0.096,0.009c-0.779,0.149-1.824,1.802-1.875,1.903
					C67.66,58.596,67.991,63.378,72.26,66.604 M11.815,8.212c-0.892,0-1.685,0.578-1.955,1.434c-0.028,0.088-1.922,6.453,2.99,12.79
					c-0.393,0.498-0.544,1.165-0.371,1.808c0.564,2.08,1.922,5.917,4.918,9.702c-0.481,0.442-0.735,1.1-0.647,1.776
					c0.777,5.969,5.545,11.764,10.778,13.704c-1.147,2.206-2.062,4.428-2.732,6.633c-0.959,3.151-1.5,7.417-1.379,10.867
					c0.117,3.273,0.927,6.239,2.409,8.815c1.764,3.079,3.897,5.272,6.52,6.702c2.981,1.619,5.634,2.249,9.791,2.325l0.219,0.002
					c3.706,0,6.997-1.691,10.004-3.546c1.001,1.16,1.881,1.862,1.934,1.904c0.013,0.01,0.026,0.021,0.04,0.03
					c1.254,0.942,3.748,2.022,5.592,2.126c0.196,0.011,0.392,0.017,0.587,0.017c2.125,0,4.304-0.653,6.66-1.995
					c4.314-2.488,6.693-4.975,8.787-9.177c0.015-0.031,0.031-0.062,0.046-0.093c0.097,0.028,0.199,0.059,0.307,0.091
					c-1.211,2.852-3.541,7.351-6.345,12.211c-0.01,0.018-0.021,0.036-0.03,0.054c-1.581,2.943-4.162,5.8-6.574,7.277
					c-0.358,0.22-1.115,0.446-1.762,0.446c-0.337,0-0.514-0.062-0.553-0.085c-0.384-0.344-0.581-1.094-0.568-1.493
					c0.109-0.062,0.244-0.132,0.347-0.186c0.756-0.392,3.055-1.583,2.272-4.187c-0.103-0.342-0.293-0.652-0.553-0.898
					c-1.175-1.112-2.334-1.693-4.003-2.005c-0.304-0.058-0.618-0.086-0.933-0.086c-2.5-0.001-4.946,1.833-5.69,4.265
					c-1.139,3.772-0.014,6.397,1.129,7.937c1.72,2.315,4.756,3.802,8.019,3.952c-0.705,0.642-1.241,1.467-1.53,2.42
					c-0.792,2.616-0.409,5.08,1.109,7.125c1.878,2.531,5.438,4.166,9.071,4.166c0.652,0,1.286-0.056,1.884-0.166
					c5.354-0.985,9.038-5.224,11.343-8.325c3.837-5.171,5.184-7.479,7.286-11.79c1.903-3.9,6.934-14.757,8.577-18.661
					c0.62-0.077,1.395-0.163,2.156-0.247c1.446-0.16,3.019-0.335,4.389-0.532c0.123,0.405,0.254,0.769,0.408,1.084
					c2.188,4.51,6.18,7.098,10.949,7.098c0.895,0,1.82-0.092,2.75-0.271c1.965-0.375,4.358-1.605,7.312-3.759
					c0.479-0.348,0.944-0.683,1.366-0.984c2.154,3.437,5.268,5.258,9.284,5.423c0.244,0.011,0.489,0.016,0.731,0.016
					c5.162,0,9.236-2.429,13.212-7.874c3.092-4.236,4.415-10.797,3.967-13.454c-0.371-2.268-2.025-3.757-4.315-3.876
					c-0.136-0.007-0.266-0.01-0.395-0.01c-1.96,0-3.584,0.755-4.878,1.593c0.333-1.021,0.621-2.133,0.867-3.352
					c0.711-3.475-0.354-8.18-2.844-9.269c-0.506-0.22-1.087-0.325-1.782-0.325c-2.519,0-6.711,1.51-8.308,2.529
					c-1.429,0.913-3.049,2.08-4.543,3.716c0.073-0.534,0.107-1.048,0.104-1.541c-0.022-2.975-1.402-4.223-1.994-4.622
					c-0.523-0.349-1.227-0.577-2.988-0.577c-0.709,0-1.597,0.042-2.385,0.132c0.625-0.164,1.264-0.403,1.922-0.719
					c2.447-1.179,3.643-3.468,3.121-5.975c-0.207-1.016-0.657-2.521-1.612-3.872c-2.242-3.186-5.589-4.003-8.06-4.295
					c1.444-1.346,2.138-3.315,1.739-5.248c-0.21-1.022-0.659-2.527-1.603-3.868c-1.953-2.764-4.489-4.164-7.539-4.164
					c-0.309,0-0.627,0.015-0.945,0.044c-6.499,0.607-10.009,5.454-12.341,9.608c-1.651,2.945-5.306,11.356-9.175,20.262
					c-3.007,6.92-6.104,14.048-8.198,18.443c-0.207-0.078-0.43-0.162-0.654-0.246c0.035-0.11,0.069-0.224,0.105-0.343
					c1.04-3.568,1.169-6.926,0.41-10.578c-0.276-1.381-0.719-2.608-1.313-3.629c-1.364-2.301-4.778-4.63-6.773-4.63
					c-0.174,0-0.344,0.015-0.507,0.044c-1.848,0.314-4.757,3.95-5.338,5.532c-0.237,0.656-0.443,1.296-0.618,1.921
					c-1.086-1.08-2.492-1.69-3.996-1.69c-1.121,0-2.23,0.346-3.211,1c-2.157,1.44-3.972,3.569-5.109,5.997
					c-2.168,4.642-2.913,8.018-2.844,12.904c0.001,0.054,0.004,0.107,0.009,0.161l0.13,1.395c-1.234,1.031-3.082,2.231-5.699,2.434
					c-0.176,0.014-0.351,0.021-0.521,0.021c-1.54,0-2.89-0.544-4.013-1.618c-1.152-1.106-1.888-2.536-2.245-4.366
					c-0.399-2.015-0.384-5.367,0.036-7.978c0.43-2.701,1.243-5.524,2.419-8.395c1.186-2.887,2.744-5.772,4.628-8.573
					c1.584-2.357,3.424-4.587,5.47-6.629c0.235-0.206,1.306-1.137,2.547-2.174c-2.609,4.366-1.304,7.954,0.937,9.938
					c1.496,1.325,3.575,2.137,5.856,2.288c0.264,0.017,0.527,0.025,0.793,0.025c5.74,0,12.287-3.646,15.787-7.246
					c3.431-3.534,4.047-5.896,4.455-7.459c0.054-0.207,0.103-0.398,0.16-0.578c0.015-0.046,1.61-5.458,0.119-7.263
					c-1.27-1.548-4.824-2.231-4.975-2.259l-0.098-0.018c-2.241-0.422-4.781-0.899-8.05-0.899c-4.039,0-8.426,0.746-13.413,2.281
					c-2.417,0.739-5.218,2.106-7.678,3.751c-0.827,0.554-1.806,1.252-2.839,2.023c-0.058-0.308-0.123-0.617-0.194-0.929
					c-1.597-6.946-6.667-8.935-11.139-10.688c-1.364-0.535-2.775-1.088-4.098-1.769c-1.288-0.661-2.656-1.29-3.979-1.899
					c-4.508-2.073-9.17-4.218-9.932-7.298c-0.22-0.892-1.007-1.528-1.925-1.557C11.859,8.212,11.837,8.212,11.815,8.212
					L11.815,8.212z M88.831,69.095c1.867-4.113,4.525-10.133,7.308-16.435c4.648-10.527,9.917-22.459,11.578-25.626
					c0.379-0.723,0.949-1.054,1.85-1.074l0.076-0.001c0.042,0,0.08,0.001,0.113,0.003c-0.009,0.1-0.032,0.236-0.08,0.416
					c-0.294,1.086-0.965,2.083-1.794,2.665c-0.548,0.384-0.874,1.011-0.873,1.68c0,0.668,0.327,1.295,0.875,1.678
					c0.553,0.386,1.03,0.72,1.598,0.959c0.343,0.146,0.672,0.268,0.991,0.366c-4.011,2.469-7.015,7.127-8.431,10.256
					c-1.622,3.585-8.51,19.381-10.969,25.33c-0.144-0.007-0.294-0.014-0.455-0.02C90.155,69.234,89.504,69.164,88.831,69.095
					L88.831,69.095z M61.346,37.765c0.386-0.221,0.813-0.418,1.291-0.601C62.227,37.38,61.796,37.581,61.346,37.765L61.346,37.765z
					 M102.107,68.68c0.859-2.031,1.821-4.435,2.872-7.061c2.636-6.587,5.624-14.054,8.484-19.379
					c1.452-2.696,2.54-3.086,2.839-3.142c0.041-0.007,0.088-0.011,0.137-0.011c0.358,0,0.791,0.216,1.028,0.514
					c0.095,0.119,0.135,0.225,0.125,0.267c-0.245,1.056-0.328,1.414-1.96,1.983c-0.723,0.252-1.245,0.886-1.354,1.644
					c-0.109,0.757,0.213,1.513,0.836,1.958c0.13,0.094,0.266,0.196,0.401,0.298c0.477,0.358,0.927,0.698,1.407,0.905
					c0.941,0.403,1.92,0.606,2.916,0.606c0.229,0,0.46-0.01,0.691-0.031c-3.679,0.917-6.35,2.539-9.779,5.924
					c-3.747,3.695-6.122,9.099-6.516,14.823c-0.009,0.129-0.015,0.264-0.018,0.4c-0.187,0.035-0.365,0.071-0.532,0.113
					c-0.035,0.009-0.07,0.018-0.104,0.028C103.093,68.58,102.593,68.633,102.107,68.68L102.107,68.68z M114,64.415
					c0.061-0.158,0.127-0.317,0.201-0.481c1.418-3.168,2.773-5.501,3.818-6.569c0.898-0.915,1.978-1.653,2.906-2.166
					c-0.125,0.393-0.278,0.816-0.458,1.25l-0.228,0.55c-0.856,2.076-1.475,3.576-3.182,5.364
					C116.271,63.187,115.195,63.82,114,64.415L114,64.415z M133.105,65.95c0.004-0.035,0.009-0.071,0.014-0.108
					c0.417-3.134,1.307-5.292,3.173-7.701c0.764-0.987,2.058-1.869,3.11-2.445c-0.014,0.215-0.043,0.418-0.093,0.587
					c-1.297,4.394-2.246,6.232-5.657,9.186C133.519,65.585,133.329,65.752,133.105,65.95L133.105,65.95z M71.355,55.958
					c0.034-0.055,0.073-0.115,0.116-0.177c0.02,0.044,0.036,0.085,0.047,0.121c0.622,2.246,0.614,4.493-0.043,6.909
					C70.029,60.487,70.352,57.901,71.355,55.958L71.355,55.958z M61.044,76.958c-0.815,0-1.189-0.375-1.4-0.657
					c-0.646-0.867-0.962-1.889-0.936-3.03c0.08-3.979,0.309-6.049,2.171-9.204c0.575-0.974,1.629-2.121,2.477-3.043l0.154-0.167
					c0.081-0.086,0.169-0.173,0.264-0.26c0.105,3.441,1.469,6.445,4.138,9.293c0.216,0.232,0.443,0.44,0.669,0.631
					c-0.981,2.402-2.343,3.49-5.063,5.512C62.737,76.612,61.813,76.958,61.044,76.958L61.044,76.958z M134.622,73.527
					c0.614-0.459,1.303-0.967,1.58-1.163c4.014-2.886,4.856-4.044,6.892-6.842l0.214-0.293c0.345-0.476,0.666-0.977,0.963-1.508
					c0.046,0.072,0.097,0.143,0.152,0.209c0.209,0.252,0.41,0.492,0.602,0.721c1.883,2.249,2.235,2.783,2.029,3.848
					c-0.44,2.24-1.751,5.365-5.483,7.497c-0.561,0.321-1.214,0.477-1.995,0.477c-0.476,0-1.002-0.06-1.564-0.179
					c-0.468-0.098-2.07-0.558-3.186-2.395C134.75,73.778,134.684,73.655,134.622,73.527L134.622,73.527z M113.573,72.48
					c0.381-0.172,0.786-0.349,1.153-0.509c0.988-0.433,1.842-0.807,2.346-1.101c3.552-2.086,5.649-4.091,7.415-6.656
					c-0.336,3.234,0.102,6.207,0.6,8.318c-0.794,0.612-1.874,1.343-3.678,2.431c-1.095,0.662-2.265,1.012-3.387,1.012
					C115.85,75.976,114.253,74.694,113.573,72.48L113.573,72.48z M67.041,100.218c3.058-1.229,6.039-3.416,8.49-6.308
					c4.531-5.354,7.437-11.912,9.772-17.181c0.11-0.248,0.218-0.491,0.325-0.731c0.429,0.036,0.908,0.074,1.417,0.113
					c0.108,0.028,0.22,0.048,0.334,0.058l0.366,0.033c0.113,0.011,0.227,0.021,0.341,0.031c-3.02,6.978-8.933,19.465-12.187,25.106
					c-1.444,2.5-2.103,3.463-4.377,5.3c-0.44,0.354-1.333,0.738-2.005,0.738c-0.177,0-0.321-0.027-0.395-0.075
					c-0.311-0.2-0.456-0.444-0.421-0.525c0.143-0.325,0.267-0.463,0.675-0.889c0.298-0.312,0.669-0.699,1.11-1.269
					c0.342-0.443,0.489-1.007,0.405-1.561c-0.084-0.555-0.391-1.05-0.85-1.371C69.059,101,68.104,100.528,67.041,100.218
					L67.041,100.218z"/>
			</g>
			<g>
				<g>
					<g>
						<path fill-rule="evenodd" clip-rule="evenodd" fill="#636969" d="M35.668,31.716c-0.054,0.02-0.333-0.739-1.163-1.608
							c-0.792-0.891-2.051-1.892-3.389-2.772c-1.346-0.874-2.778-1.619-3.89-2.124c-1.111-0.51-1.895-0.796-1.943-0.815
							c-0.047-0.016-0.77-0.306-1.842-0.789c-0.267-0.118-0.554-0.246-0.858-0.381c-0.291-0.158-0.597-0.324-0.914-0.496
							c-0.314-0.173-0.64-0.351-0.97-0.532c-0.316-0.202-0.638-0.407-0.959-0.612c-1.287-0.812-2.476-1.755-3.332-2.493
							c-0.853-0.744-1.362-1.301-1.328-1.335c0.036-0.036,0.604,0.448,1.503,1.119c0.903,0.665,2.123,1.534,3.423,2.279
							c2.581,1.549,5.423,2.516,5.54,2.574c0.049,0.02,0.845,0.332,1.963,0.885c1.12,0.549,2.555,1.356,3.892,2.302
							c1.329,0.952,2.566,2.036,3.317,3.011C35.508,30.882,35.712,31.713,35.668,31.716z"/>
					</g>
				</g>
			</g>
			<g>
				<g>
					<g>
						<path fill-rule="evenodd" clip-rule="evenodd" fill="#636969" d="M35.223,39.036c-0.014,0.043-0.607-0.099-1.477-0.377
							c-0.868-0.284-2.033-0.648-3.17-1.112c-0.575-0.225-1.147-0.449-1.684-0.659c-0.534-0.227-1.017-0.494-1.442-0.698
							c-0.843-0.428-1.434-0.703-1.454-0.746c-0.032-0.023-0.515-0.375-1.226-0.895c-0.72-0.503-1.618-1.22-2.493-1.955
							c-1.767-1.448-3.425-2.988-3.363-3.06c0.067-0.079,1.838,1.323,3.675,2.661c0.911,0.68,1.833,1.349,2.559,1.812
							c0.717,0.483,1.203,0.811,1.236,0.833c0.021,0.044,0.58,0.322,1.38,0.768c0.405,0.214,0.859,0.49,1.374,0.737
							c0.521,0.233,1.076,0.482,1.633,0.732C32.987,38.085,35.257,38.936,35.223,39.036z"/>
					</g>
				</g>
			</g>
			<g>
				<g>
					<g>
						<path fill-rule="evenodd" clip-rule="evenodd" fill="#636969" d="M31.372,44.639c0,0.049-0.339,0.072-0.855,0.076
							c-0.256-0.006-0.561,0.019-0.882-0.023c-0.331-0.047-0.672-0.097-1.009-0.145c-0.35-0.032-0.677-0.167-0.997-0.248
							c-0.316-0.094-0.621-0.167-0.86-0.288c-0.496-0.217-0.827-0.362-0.848-0.371c-0.027,0.001-0.311-0.191-0.725-0.467
							c-0.429-0.258-0.916-0.693-1.414-1.103c-0.947-0.877-1.774-1.832-1.709-1.898c0.073-0.075,1.027,0.752,2.03,1.505
							c0.522,0.346,1.021,0.725,1.445,0.936c0.411,0.231,0.687,0.396,0.712,0.395c0.019,0.009,0.32,0.165,0.771,0.397
							c0.218,0.131,0.497,0.218,0.788,0.331c0.295,0.099,0.595,0.258,0.924,0.317c0.317,0.081,0.639,0.163,0.95,0.242
							c0.305,0.078,0.599,0.094,0.846,0.142C31.038,44.517,31.373,44.589,31.372,44.639z"/>
					</g>
				</g>
			</g>
			<g>
				<path fill-rule="evenodd" clip-rule="evenodd" fill="#FFFFFF" d="M32.764,63.484c-0.065-0.004-0.043-0.963,0.031-2.419
					c0.01-0.726,0.151-1.562,0.291-2.465c0.07-0.454,0.144-0.916,0.211-1.393c0.121-0.464,0.234-0.933,0.351-1.409
					c0.116-0.475,0.238-0.948,0.354-1.416c0.158-0.459,0.31-0.905,0.454-1.34c0.155-0.437,0.299-0.857,0.438-1.264
					c0.167-0.39,0.329-0.759,0.482-1.1c0.566-1.382,1.102-2.257,1.12-2.324c0.045-0.045,0.462-0.911,1.272-2.051
					c0.744-1.183,1.912-2.613,3.137-3.981c1.262-1.329,2.625-2.548,3.724-3.367c1.094-0.823,1.906-1.258,1.938-1.205
					c0.041,0.053-0.697,0.581-1.705,1.474c-1.012,0.892-2.291,2.16-3.461,3.523c-1.141,1.387-2.228,2.823-2.914,4.005
					c-0.75,1.135-1.132,1.989-1.18,2.037c-0.022,0.059-0.567,0.899-1.157,2.234c-0.156,0.327-0.327,0.682-0.507,1.06
					c-0.146,0.387-0.301,0.794-0.466,1.219c-0.156,0.418-0.324,0.85-0.499,1.293c-0.129,0.453-0.267,0.912-0.398,1.375
					C33.152,59.644,32.925,63.498,32.764,63.484z"/>
			</g>
			<g>
				<path fill-rule="evenodd" clip-rule="evenodd" fill="#FFFFFF" d="M55.763,76.017c-0.042,0.011-0.248-0.543-0.499-1.399
					c-0.215-0.869-0.449-2.046-0.488-3.249c-0.084-1.198,0.025-2.396,0.135-3.305c0.145-0.902,0.271-1.517,0.293-1.555
					c0.029-0.031,0.138-0.607,0.457-1.408c0.273-0.802,0.766-1.828,1.372-2.772c0.589-0.952,1.381-1.78,2.052-2.288
					c0.326-0.275,0.631-0.444,0.857-0.551c0.221-0.11,0.349-0.163,0.362-0.14c0.009,0.023-0.091,0.112-0.284,0.259
					c-0.197,0.14-0.465,0.348-0.752,0.634c-0.582,0.56-1.275,1.397-1.791,2.348c-0.523,0.942-0.957,1.94-1.188,2.733
					c-0.271,0.771-0.352,1.334-0.374,1.367c-0.024,0.034-0.167,0.616-0.347,1.482c-0.137,0.869-0.299,2.025-0.277,3.191
					c-0.031,1.168,0.125,2.33,0.248,3.195C55.705,75.425,55.821,76.001,55.763,76.017z"/>
			</g>
			<g>
				<path fill-rule="evenodd" clip-rule="evenodd" fill="#FFFFFF" d="M110.292,65.561c-0.049-0.009,0.034-0.602,0.189-1.495
					c0.174-0.883,0.457-2.066,0.889-3.206c0.395-1.151,0.943-2.263,1.396-3.079c0.452-0.82,0.841-1.339,0.856-1.377
					c0.004-0.043,0.385-0.508,0.945-1.188c0.598-0.642,1.397-1.484,2.345-2.153c0.934-0.693,1.96-1.248,2.786-1.531
					c0.82-0.301,1.428-0.291,1.424-0.247c0.009,0.056-0.56,0.132-1.316,0.504c-0.76,0.351-1.715,0.951-2.562,1.662
					c-0.879,0.701-1.607,1.549-2.159,2.188c-0.509,0.677-0.859,1.132-0.869,1.176c-0.011,0.039-0.402,0.523-0.869,1.297
					c-0.47,0.773-1.048,1.827-1.5,2.931C110.903,63.237,110.413,65.589,110.292,65.561z"/>
			</g>
			<g>
				<path fill-rule="evenodd" clip-rule="evenodd" fill="#FFFFFF" d="M129.799,64.977c-0.043-0.002-0.021-0.493,0.037-1.232
					c0.064-0.743,0.127-1.738,0.41-2.707c0.129-0.483,0.217-0.978,0.362-1.43c0.184-0.439,0.351-0.854,0.493-1.213
					c0.259-0.727,0.579-1.157,0.595-1.194c0.016-0.024,0.288-0.433,0.698-1.036c0.23-0.282,0.531-0.577,0.84-0.907
					c0.291-0.343,0.664-0.642,1.051-0.923c1.504-1.192,3.309-1.821,3.329-1.748c0.059,0.102-1.649,0.896-2.995,2.126
					c-0.348,0.299-0.682,0.604-0.939,0.944c-0.27,0.33-0.541,0.623-0.74,0.895c-0.361,0.598-0.599,0.995-0.616,1.019
					c-0.011,0.027-0.333,0.419-0.609,1.103c-0.162,0.336-0.34,0.723-0.532,1.137c-0.167,0.423-0.288,0.904-0.437,1.368
					c-0.337,0.922-0.478,1.888-0.626,2.607S129.852,64.985,129.799,64.977z"/>
			</g>
			<g>
				<path fill-rule="evenodd" clip-rule="evenodd" fill="#FFFFFF" d="M69.268,94.517c-0.037-0.048,0.477-0.418,1.174-1.043
					c0.686-0.643,1.561-1.537,2.334-2.525c0.795-0.965,1.514-2.006,2.053-2.793c0.524-0.802,0.875-1.346,0.898-1.381
					c0.019-0.031,0.353-0.543,0.846-1.293c0.477-0.752,1.102-1.746,1.687-2.764c0.597-1.008,1.153-2.027,1.579-2.793
					c0.428-0.766,0.697-1.284,0.745-1.266c0.106,0.048-0.782,2.209-1.874,4.299c-0.526,1.053-1.113,2.086-1.563,2.867
					c-0.464,0.776-0.784,1.3-0.807,1.335c-0.022,0.034-0.398,0.573-0.952,1.371c-0.58,0.776-1.354,1.798-2.213,2.741
					c-0.84,0.963-1.787,1.826-2.545,2.409C69.859,94.257,69.288,94.548,69.268,94.517z"/>
			</g>
			<g>
				<path fill-rule="evenodd" clip-rule="evenodd" fill="#FFFFFF" d="M77.477,107.255c-0.012-0.024,0.164-0.215,0.486-0.526
					c0.169-0.157,0.365-0.344,0.586-0.551c0.208-0.224,0.428-0.503,0.679-0.789c1.019-1.146,2.176-2.831,3.275-4.554
					c1.084-1.736,2.097-3.527,2.827-4.906c0.76-1.367,1.221-2.329,1.26-2.382c0.032-0.063,0.501-0.94,1.182-2.229
					c0.682-1.292,1.539-3.012,2.38-4.721c0.819-1.705,1.64-3.413,2.272-4.729c0.617-1.284,1.031-2.137,1.078-2.118
					c0.047,0.02-0.279,0.909-0.814,2.233c-0.536,1.324-1.287,3.073-2.065,4.822c-0.788,1.75-1.599,3.497-2.25,4.81
					c-0.642,1.314-1.103,2.207-1.133,2.263c-0.04,0.056-0.525,1.008-1.313,2.371c-0.771,1.367-1.84,3.146-2.991,4.855
					c-1.155,1.714-2.395,3.37-3.494,4.47c-0.271,0.277-0.503,0.539-0.739,0.754c-0.245,0.189-0.459,0.363-0.643,0.512
					C77.702,107.118,77.491,107.271,77.477,107.255z"/>
			</g>
			<g>
				<path fill-rule="evenodd" clip-rule="evenodd" fill="#FFFFFF" d="M97.106,41.573c-0.104-0.029,0.455-2.338,1.226-4.617
					c0.372-1.14,0.796-2.272,1.131-3.121c0.354-0.853,0.594-1.432,0.608-1.462c0.011-0.042,0.276-0.561,0.664-1.334
					c0.398-0.758,0.949-1.741,1.557-2.693c0.308-0.472,0.646-0.926,0.943-1.355c0.325-0.403,0.637-0.775,0.916-1.116
					c0.59-0.606,1-0.987,1.033-0.951c0.038,0.029-0.297,0.475-0.809,1.123c-0.248,0.358-0.518,0.751-0.805,1.17
					c-0.262,0.447-0.565,0.911-0.83,1.388c-0.547,0.967-1.041,1.966-1.399,2.728c-0.35,0.773-0.589,1.298-0.604,1.337
					c-0.016,0.033-0.273,0.592-0.652,1.418c-0.367,0.828-0.836,1.93-1.268,3.038c-0.445,1.111-0.85,2.233-1.154,3.064
					C97.358,41.026,97.157,41.587,97.106,41.573z"/>
			</g>
			<g>
				<path fill-rule="evenodd" clip-rule="evenodd" fill="#FFFFFF" d="M182.204,52.519c-0.056-0.101,1.854-1.34,3.475-2.938
					c0.781-0.829,1.586-1.628,2.098-2.323c0.537-0.674,0.921-1.124,0.925-1.158c0.024-0.03,0.347-0.468,0.823-1.114
					c0.515-0.625,1.015-1.554,1.569-2.447c0.258-0.456,0.45-0.942,0.673-1.381c0.099-0.22,0.206-0.435,0.303-0.639
					c0.067-0.21,0.132-0.409,0.19-0.598c0.242-0.743,0.423-1.243,0.468-1.231c0.056,0.005-0.033,0.524-0.191,1.309
					c-0.046,0.203-0.092,0.416-0.14,0.636c-0.079,0.22-0.166,0.443-0.248,0.676c-0.188,0.457-0.357,0.975-0.589,1.457
					c-0.512,0.947-0.979,1.927-1.471,2.583c-0.464,0.682-0.781,1.145-0.799,1.178c-0.014,0.039-0.416,0.484-0.995,1.151
					c-0.555,0.686-1.425,1.473-2.257,2.267c-0.438,0.382-0.911,0.723-1.332,1.06c-0.216,0.163-0.421,0.32-0.622,0.473
					c-0.207,0.128-0.406,0.245-0.599,0.369C182.733,52.285,182.239,52.559,182.204,52.519z"/>
			</g>
			<g>
				<path fill-rule="evenodd" clip-rule="evenodd" fill="#FFFFFF" d="M173.215,81.69c-0.018-0.041,0.49-0.268,1.263-0.583
					c0.402-0.159,0.849-0.336,1.321-0.522c0.48-0.189,0.953-0.487,1.444-0.733c0.479-0.272,0.994-0.482,1.418-0.784
					c0.428-0.295,0.825-0.568,1.171-0.801c0.706-0.444,1.094-0.873,1.127-0.876c0.029-0.025,0.438-0.354,1.045-0.843
					c0.286-0.262,0.594-0.593,0.935-0.926c0.351-0.328,0.696-0.703,1.001-1.111c1.334-1.541,2.301-3.338,2.404-3.279
					c0.039,0.021-0.158,0.486-0.487,1.184c-0.37,0.672-0.871,1.58-1.504,2.404c-0.288,0.436-0.622,0.836-0.967,1.197
					c-0.334,0.363-0.626,0.717-0.913,1.001c-0.604,0.534-1.017,0.894-1.042,0.913c-0.035,0.016-0.456,0.438-1.209,0.864
					c-0.359,0.229-0.789,0.496-1.239,0.772c-0.451,0.289-0.992,0.481-1.5,0.732c-0.522,0.22-1.016,0.494-1.524,0.65
					c-0.495,0.151-0.962,0.287-1.382,0.416C173.769,81.604,173.226,81.74,173.215,81.69z"/>
			</g>
			<g>
				<path fill-rule="evenodd" clip-rule="evenodd" fill="#FFFFFF" d="M214.655,66.134c-0.044-0.013,0.058-0.522,0.243-1.298
					c0.103-0.405,0.22-0.854,0.335-1.327c0.182-0.466,0.408-0.952,0.623-1.444c0.376-1.019,1.037-1.884,1.47-2.591
					c0.432-0.699,0.879-1.069,0.877-1.116c0.024-0.021,0.382-0.407,0.92-0.971c0.305-0.244,0.653-0.524,1.034-0.831
					c0.178-0.149,0.369-0.299,0.566-0.456c0.221-0.124,0.435-0.26,0.659-0.392c0.849-0.566,1.813-0.924,2.528-1.182
					c0.761-0.151,1.256-0.234,1.262-0.184c0.011,0.049-0.467,0.223-1.164,0.448c-0.662,0.325-1.55,0.732-2.334,1.336
					c-0.208,0.136-0.406,0.275-0.607,0.411c-0.179,0.16-0.352,0.321-0.525,0.478c-0.35,0.304-0.666,0.59-0.944,0.835
					c-0.484,0.568-0.818,0.95-0.84,0.968c0.001,0.046-0.444,0.389-0.889,1.047c-0.44,0.659-1.129,1.463-1.549,2.422
					c-0.239,0.463-0.475,0.917-0.705,1.363c-0.161,0.453-0.31,0.879-0.442,1.267C214.908,65.658,214.708,66.143,214.655,66.134z"/>
			</g>
			<g>
				<path fill-rule="evenodd" clip-rule="evenodd" fill="#FFFFFF" d="M285.86,86.601c0.048,0.016-0.095,0.619-0.432,1.494
					c-0.356,0.869-0.956,1.986-1.775,2.977c-0.832,0.978-1.854,1.804-2.709,2.318c-0.863,0.498-1.504,0.756-1.548,0.758
					c-0.036,0.004-0.635,0.258-1.558,0.429c-0.46,0.126-1.01,0.131-1.578,0.214c-0.578-0.008-1.191,0.045-1.801-0.039
					c-2.461-0.164-4.649-1.227-4.61-1.311c0.029-0.057,0.61,0.084,1.461,0.297c0.857,0.16,2.011,0.391,3.174,0.382
					c0.585,0.041,1.158-0.048,1.699-0.067c0.527-0.105,1.036-0.139,1.453-0.278c0.844-0.195,1.372-0.457,1.419-0.46
					c0.039,0.004,0.635-0.215,1.458-0.635c0.81-0.438,1.802-1.153,2.646-2.029c0.835-0.883,1.496-1.906,1.945-2.705
					C285.527,87.139,285.788,86.573,285.86,86.601z"/>
			</g>
			<g>
				<path fill-rule="evenodd" clip-rule="evenodd" fill="#FFFFFF" d="M223.769,74.135c0.07,0.063-0.601,0.987-1.43,1.809
					c-0.41,0.411-0.854,0.798-1.215,1.065c-0.349,0.289-0.607,0.449-0.626,0.459c-0.014,0.013-0.263,0.147-0.635,0.354
					c-0.378,0.187-0.893,0.422-1.417,0.591c-1.059,0.371-2.181,0.396-2.183,0.324c-0.021-0.119,1.036-0.32,1.984-0.784
					c0.474-0.229,0.934-0.487,1.27-0.694c0.34-0.225,0.562-0.377,0.579-0.384c0.011-0.009,0.274-0.143,0.626-0.39
					c0.362-0.229,0.824-0.561,1.262-0.913C222.877,74.872,223.685,74.073,223.769,74.135z"/>
			</g>
			<g>
				<path fill-rule="evenodd" clip-rule="evenodd" fill="#FFFFFF" d="M205.92,50.458c0.012,0.053-0.332,0.237-0.854,0.483
					c-0.273,0.106-0.551,0.283-0.842,0.491c-0.287,0.219-0.629,0.385-0.908,0.649c-0.285,0.254-0.575,0.501-0.846,0.74
					c-0.259,0.238-0.476,0.502-0.676,0.708c-0.408,0.413-0.65,0.719-0.658,0.747c-0.019,0.017-0.258,0.292-0.615,0.704
					c-0.367,0.402-0.756,0.999-1.187,1.568c-0.79,1.182-1.369,2.469-1.479,2.437c-0.083-0.027,0.337-1.409,1.039-2.694
					c0.377-0.621,0.739-1.267,1.089-1.708c0.347-0.448,0.575-0.751,0.592-0.766c0.008-0.032,0.281-0.337,0.729-0.743
					c0.224-0.203,0.467-0.452,0.76-0.688c0.294-0.225,0.608-0.464,0.94-0.7c0.31-0.252,0.691-0.406,1.011-0.591
					c0.322-0.185,0.641-0.337,0.934-0.406C205.522,50.511,205.903,50.412,205.92,50.458z"/>
			</g>
			<g>
				<path fill-rule="evenodd" clip-rule="evenodd" fill="#FFFFFF" d="M261.706,71.021c-0.028,0-0.053-0.113-0.073-0.33
					c-0.043-0.214-0.046-0.523-0.009-0.894c0.045-0.737,0.256-1.692,0.511-2.638c0.255-0.943,0.56-1.873,0.785-2.578
					c0.232-0.707,0.39-1.182,0.402-1.211c0.011-0.025,0.183-0.467,0.428-1.114c0.249-0.641,0.568-1.488,0.863-2.337
					c0.288-0.849,0.518-1.706,0.621-2.358c0.091-0.652-0.05-1.066,0.007-1.096c0.033-0.028,0.281,0.412,0.278,1.123
					c-0.019,0.693-0.181,1.594-0.415,2.478c-0.234,0.882-0.505,1.753-0.719,2.409c-0.222,0.666-0.362,1.114-0.377,1.14
					c-0.01,0.029-0.188,0.494-0.457,1.186c-0.26,0.695-0.611,1.6-0.928,2.512c-0.314,0.913-0.588,1.828-0.723,2.529
					C261.739,70.535,261.78,71.017,261.706,71.021z"/>
			</g>
		</g>
	</g>
</g>
<g>
</g>
<g>
</g>
<g>
</g>
<g>
</g>
<g>
</g>
<g>
</g>
<g>
</g>
<g>
</g>
<g>
</g>
<g>
</g>
<g>
</g>
<g>
</g>
<g>
</g>
<g>
</g>
<g>
</g>
</svg>
