<svg xmlns="http://www.w3.org/2000/svg" viewBox="0 0 35.97 42.99"><defs><style>.cls-1{fill:none;stroke:#fff;stroke-linecap:round;stroke-linejoin:round;stroke-width:2px;}</style></defs><title>Ресурс 20</title><g id="Слой_2" data-name="Слой 2"><g id="Слой_1-2" data-name="Слой 1"><path class="cls-1" d="M30.3,37.31c-5.32,5.32-13,6.24-17.22,2s-3.28-11.91,2-17.23,13-6.23,17.22-2S35.62,32,30.3,37.31ZM16.94,36.08s-.79-2,1.68-4.51,5.23-1,7.7-3.45a6.44,6.44,0,0,0,1.59-5.84M4.25,14.82c3.71,3.7,9.07,4.34,12,1.42s2.28-8.28-1.42-12S5.75-.09,2.83,2.83.55,11.12,4.25,14.82Zm9.15-2.54a4.48,4.48,0,0,0-1-1.46C10.66,9.1,8.74,10.15,7,8.42A4,4,0,0,1,6,6.77"/></g></g></svg>
