<svg xmlns="http://www.w3.org/2000/svg" width="13.695" height="15.332" viewBox="0 0 13.695 15.332">
  <g id="Group-18" transform="translate(1 1)">
    <path id="Rectangle-2" d="M2.747,5.214a1.6,1.6,0,0,0-1.59,1.423L.528,12.275a1.627,1.627,0,0,0-.01.177,1.6,1.6,0,0,0,1.6,1.6h8.493a1.646,1.646,0,0,0,.178-.01A1.6,1.6,0,0,0,12.2,12.275l-.629-5.638A1.6,1.6,0,0,0,9.983,5.214Z" transform="translate(-0.518 -0.719)" fill="none" stroke="#fff" stroke-width="2"/>
    <path id="Oval-12" d="M9.4,3.971A3.092,3.092,0,0,0,6.2,1,3.092,3.092,0,0,0,3,3.971" transform="translate(-0.353 -1)" fill="none" stroke="#fff" stroke-linecap="round" stroke-linejoin="round" stroke-width="2"/>
  </g>
</svg>
