<svg width="30" height="30" viewBox="0 0 30 30" fill="none" xmlns="http://www.w3.org/2000/svg">
<g opacity="0.15">
<path d="M28.9535 5.80179H27.9908V2.47935C27.9908 1.90138 27.5222 1.43286 26.9443 1.43286H21.2188C20.6408 1.43286 20.1723 1.90144 20.1723 2.47935V5.80179H18.9093V2.47935C18.9093 1.90138 18.4407 1.43286 17.8628 1.43286H12.1373C11.5593 1.43286 11.0908 1.90144 11.0908 2.47935V5.80179H9.82781V2.47935C9.82781 1.90138 9.35924 1.43286 8.78133 1.43286H3.05566C2.4777 1.43286 2.00918 1.90144 2.00918 2.47935V5.80179H1.04648C0.468516 5.80179 0 6.27036 0 6.84827V27.5206C0 28.0985 0.468574 28.567 1.04648 28.567H28.9535C29.5315 28.567 30 28.0985 30 27.5206V6.84827C30 6.2703 29.5314 5.80179 28.9535 5.80179ZM22.2653 3.52589H25.8978V5.80185H22.2653V3.52589ZM13.1838 3.52589H16.8163V5.80185H13.1838V3.52589ZM4.10221 3.52589H7.73473V5.80185H4.10221V3.52589ZM27.907 26.4741H2.09303V26.4741V18.231H27.907V26.4741ZM27.907 16.1379H2.09303V7.89481C3.16717 7.89481 26.8404 7.89481 27.907 7.89481V16.1379Z" fill="black"/>
</g>
</svg>
