<svg width="30" height="30" viewBox="0 0 30 30" fill="none" xmlns="http://www.w3.org/2000/svg">
<path d="M28.8788 15.697C29.2425 15.697 29.5455 15.3939 29.5455 15.0303V7.87879C29.5455 7.51515 29.2425 7.21212 28.8788 7.21212H22.6364V0.666667C22.6364 0.30303 22.3334 0 21.9697 0H8.09095H1.12126C0.75762 0 0.45459 0.30303 0.45459 0.666667V7.81818V15.0303V22.1818V29.3333C0.45459 29.697 0.75762 30 1.12126 30H15H28.8788C29.2425 30 29.5455 29.697 29.5455 29.3333V22.1818C29.5455 21.8182 29.2425 21.5152 28.8788 21.5152H22.6364V15.697H28.8788ZM8.75762 1.33333H21.2425V7.15152H15H8.75762V1.33333ZM1.78792 1.33333H7.36368V7.15152H1.78792V1.33333ZM1.78792 8.54545H8.03035H14.2728V14.3636H8.09095H1.78792V8.54545ZM1.78792 15.697H7.36368V21.5152H1.78792V15.697ZM14.2728 28.7273H1.78792V22.9091H8.03035H14.2728V28.7273ZM8.75762 21.5152V15.697H15H21.2425V21.5152H15H8.75762ZM28.1516 22.9091V28.7273H15.6667V22.9091H21.9091H28.1516ZM21.9091 14.3636H15.6667V8.54545H21.9091H28.1516V14.3636H21.9091Z" fill="#404040"/>
</svg>
