<svg width="36" height="36" viewBox="0 0 36 36" fill="none" xmlns="http://www.w3.org/2000/svg">
<path d="M35.0107 6.83075C34.3433 6.0683 33.3918 5.64835 32.3319 5.64835H6.70798L6.45007 3.71475C6.17212 1.63174 4.72192 0 3.14841 0H1.26563C0.683075 0 0.210938 0.472137 0.210938 1.05469C0.210938 1.63724 0.683075 2.10938 1.26563 2.10938H3.14841C3.48679 2.10938 4.20337 2.82486 4.3591 3.99353L7.37814 26.6369C7.51108 27.635 8.02387 28.5694 8.82202 29.2681C9.41391 29.7864 10.1135 30.1311 10.8463 30.2753C10.5477 30.8243 10.378 31.4533 10.378 32.121C10.378 34.26 12.1182 36 14.257 36C16.3957 36 18.136 34.26 18.136 32.121C18.136 31.4838 17.9805 30.8826 17.7069 30.3517H23.2336C22.9601 30.8826 22.8046 31.4838 22.8046 32.121C22.8046 34.26 24.5448 36 26.6836 36C28.8224 36 30.5626 34.26 30.5626 32.121C30.5626 31.4838 30.4071 30.8826 30.1336 30.3517H32.8969C33.4792 30.3517 33.9516 29.8792 33.9516 29.297C33.9516 28.7144 33.4792 28.2423 32.8969 28.2423H11.6211C10.5905 28.2423 9.60507 27.3793 9.46884 26.3578L9.24829 24.703H17.457C17.4573 24.703 17.4576 24.7033 17.4578 24.7033C17.4581 24.7033 17.4584 24.703 17.4589 24.703H24.2347C24.235 24.703 24.2353 24.7033 24.2358 24.7033C24.2361 24.7033 24.2361 24.703 24.2364 24.703H30.0726C31.0795 24.703 32.0735 24.3182 32.8716 23.6198C33.6698 22.9211 34.1826 21.9864 34.3155 20.9883L35.8283 9.64215C35.9684 8.59158 35.6781 7.5932 35.0107 6.83075ZM16.0266 32.121C16.0266 33.0969 15.2328 33.8906 14.257 33.8906C13.2814 33.8906 12.4873 33.0969 12.4873 32.121C12.4873 31.1454 13.2814 30.3517 14.257 30.3517C15.2328 30.3517 16.0266 31.1454 16.0266 32.121ZM28.4532 32.121C28.4532 33.0969 27.6595 33.8906 26.6836 33.8906C25.7077 33.8906 24.914 33.0969 24.914 32.121C24.914 31.1454 25.7077 30.3517 26.6836 30.3517C27.6595 30.3517 28.4532 31.1454 28.4532 32.121ZM33.4234 8.22025C33.6846 8.51852 33.7961 8.92419 33.7374 9.3631L33.1032 14.121H25.9269L26.351 7.75772H32.3319C32.775 7.75772 33.1625 7.92197 33.4234 8.22025ZM18.4455 22.5937L18.0212 16.2304H23.6722L23.2479 22.5937H18.4455ZM17.8805 14.121L17.4565 7.75772H24.2369L23.8129 14.121H17.8805ZM15.3424 7.75772L15.7665 14.121H7.83737L6.98895 7.75772H15.3424ZM8.11862 16.2304H15.9071L16.3315 22.5937H8.96704L8.11862 16.2304ZM30.0726 22.5937H25.3619L25.7863 16.2304H32.8219L32.2248 20.7095C32.0886 21.731 31.1028 22.5937 30.0726 22.5937Z" fill="#2BA4A4"/>
</svg>
