<svg width="30" height="30" viewBox="0 0 30 30" fill="none" xmlns="http://www.w3.org/2000/svg">
<g opacity="0.15">
<g clip-path="url(#clip0)">
<path d="M29.8052 17.9635C22.2514 8.59924 22.6871 9.13162 22.6034 9.05973C22.6009 9.05756 22.5987 9.05504 22.5962 9.05287L12.0493 0.205216C11.7862 -0.0155651 11.4148 -0.063319 11.1028 0.0874427C11.0991 0.0892591 11.0951 0.0905482 11.0913 0.0924232L4.06008 3.60805C3.89086 3.69266 3.75346 3.82959 3.66832 3.99852L0.0941016 11.0884C0.0927539 11.0911 0.091875 11.0939 0.0905273 11.0966C0.0342773 11.2111 0.00521484 11.3355 0.000996094 11.4522C0.000644531 11.4613 0.000292969 11.4705 0.000234375 11.4797C0.000234375 11.4811 0 11.4826 0 11.484V23.7887C0 24.0649 0.129844 24.3251 0.350625 24.4912L7.42922 29.8147C7.42986 29.8152 7.43057 29.8157 7.43121 29.8162L7.44047 29.8232C7.58701 29.9339 7.77949 29.9999 7.96904 29.9999C7.97068 29.9999 7.97227 29.9997 7.97391 29.9997H20.2722C20.2724 29.9997 20.2727 29.9997 20.2729 29.9997C20.2731 29.9997 20.2733 29.9997 20.2734 29.9997C20.4328 29.9997 20.5939 29.9538 20.727 29.8736H20.7271L29.5747 24.5415C29.8386 24.3825 30 24.0969 30 23.7888V18.5154C30.0001 18.3145 29.9313 18.1197 29.8052 17.9635ZM1.75787 23.35V16.0268L5.97744 26.5234L1.75787 23.35ZM8.56277 28.2419L3.12475 14.7143L18.0006 28.2419H8.56277ZM1.96447 11.2832L5.10686 5.05004L10.9525 2.12721L18.4741 26.2964L1.96447 11.2832ZM19.7977 24.6339L13.2132 3.4761L21.1146 10.1044L19.7977 24.6339ZM28.2422 23.2922L21.3053 27.4727L21.4748 25.6028L22.7106 11.9681L28.2422 18.8256V23.2922Z" fill="black"/>
</g>
</g>
<defs>
<clipPath id="clip0">
<rect width="30" height="30" fill="white"/>
</clipPath>
</defs>
</svg>
